<?xml version="1.0" encoding="UTF-8"?>
<!-- This file is generated by npm run build:icons -->
<svg xmlns="http://www.w3.org/2000/svg" xmlns:xlink="http://www.w3.org/1999/xlink" width="0" height="0">
<defs>
<symbol viewBox="0 0 32 32" fill="none" id="Activities">
<path d="M29.4899 24.875C29.3751 24.9397 29.2486 24.9811 29.1178 24.9968C28.9869 25.0125 28.8542 25.0021 28.7274 24.9663C28.6005 24.9306 28.482 24.8701 28.3786 24.7883C28.2752 24.7066 28.189 24.6052 28.1249 24.49L19.4149 9H16.9999V10C16.9999 10.2652 16.8946 10.5196 16.707 10.7071C16.5195 10.8946 16.2651 11 15.9999 11C15.7347 11 15.4804 10.8946 15.2928 10.7071C15.1053 10.5196 14.9999 10.2652 14.9999 10V9H12.5849L3.87493 24.49C3.74497 24.7221 3.52815 24.893 3.27217 24.9652C3.01618 25.0374 2.742 25.005 2.50993 24.875C2.27787 24.745 2.10693 24.5282 2.03473 24.2722C1.96253 24.0162 1.99497 23.7421 2.12493 23.51L10.2899 9H2.99993C2.73471 9 2.48036 8.89464 2.29282 8.70711C2.10529 8.51957 1.99993 8.26522 1.99993 8C1.99993 7.73478 2.10529 7.48043 2.29282 7.29289C2.48036 7.10536 2.73471 7 2.99993 7H28.9999C29.2651 7 29.5195 7.10536 29.707 7.29289C29.8946 7.48043 29.9999 7.73478 29.9999 8C29.9999 8.26522 29.8946 8.51957 29.707 8.70711C29.5195 8.89464 29.2651 9 28.9999 9H21.7099L29.8749 23.51C29.9397 23.6248 29.9811 23.7513 29.9967 23.8822C30.0124 24.013 30.0021 24.1457 29.9663 24.2726C29.9305 24.3994 29.87 24.5179 29.7882 24.6213C29.7065 24.7247 29.6051 24.8109 29.4899 24.875ZM15.9999 14C15.7347 14 15.4804 14.1054 15.2928 14.2929C15.1053 14.4804 14.9999 14.7348 14.9999 15V17C14.9999 17.2652 15.1053 17.5196 15.2928 17.7071C15.4804 17.8946 15.7347 18 15.9999 18C16.2651 18 16.5195 17.8946 16.707 17.7071C16.8946 17.5196 16.9999 17.2652 16.9999 17V15C16.9999 14.7348 16.8946 14.4804 16.707 14.2929C16.5195 14.1054 16.2651 14 15.9999 14ZM15.9999 21C15.7347 21 15.4804 21.1054 15.2928 21.2929C15.1053 21.4804 14.9999 21.7348 14.9999 22V24C14.9999 24.2652 15.1053 24.5196 15.2928 24.7071C15.4804 24.8946 15.7347 25 15.9999 25C16.2651 25 16.5195 24.8946 16.707 24.7071C16.8946 24.5196 16.9999 24.2652 16.9999 24V22C16.9999 21.7348 16.8946 21.4804 16.707 21.2929C16.5195 21.1054 16.2651 21 15.9999 21Z" fill="#667185"></path>
</symbol>
<symbol viewBox="0 0 24 24" fill="none" id="AirplaneInFlight">
<path d="M21.375 20.25C21.375 20.5484 21.2565 20.8345 21.0455 21.0455C20.8345 21.2565 20.5484 21.375 20.25 21.375H6.75C6.45163 21.375 6.16548 21.2565 5.95451 21.0455C5.74353 20.8345 5.625 20.5484 5.625 20.25C5.625 19.9516 5.74353 19.6655 5.95451 19.4545C6.16548 19.2435 6.45163 19.125 6.75 19.125H20.25C20.5484 19.125 20.8345 19.2435 21.0455 19.4545C21.2565 19.6655 21.375 19.9516 21.375 20.25ZM23.625 12.75V15C23.625 15.2984 23.5065 15.5845 23.2955 15.7955C23.0845 16.0065 22.7984 16.125 22.5 16.125H5.72531C4.83719 16.1291 3.97174 15.8447 3.25925 15.3144C2.54676 14.7842 2.02576 14.0369 1.77469 13.185L0.455626 8.78906C0.371619 8.5092 0.354183 8.21358 0.40471 7.92578C0.455236 7.63798 0.572327 7.36597 0.74664 7.13146C0.920953 6.89695 1.14766 6.70642 1.40868 6.57509C1.6697 6.44375 1.9578 6.37523 2.25 6.375H3C3.29814 6.37502 3.58407 6.49337 3.795 6.70406L5.71875 8.625H7.15031L6.46875 6.5925C6.37482 6.31048 6.34928 6.01016 6.39426 5.71633C6.43923 5.42249 6.55342 5.14356 6.72741 4.90254C6.90139 4.66152 7.13019 4.46533 7.39493 4.33014C7.65966 4.19494 7.95275 4.12463 8.25 4.125H9C9.29813 4.12502 9.58407 4.24337 9.795 4.45406L13.9688 8.625H19.5C20.5936 8.62624 21.6421 9.06124 22.4154 9.83456C23.1888 10.6079 23.6238 11.6564 23.625 12.75ZM21.375 12.75C21.375 12.2527 21.1775 11.7758 20.8258 11.4242C20.4742 11.0725 19.9973 10.875 19.5 10.875H13.5C13.2019 10.875 12.9159 10.7566 12.705 10.5459L8.89031 6.73031L9.77813 9.39469C9.83442 9.56382 9.84973 9.7439 9.82277 9.92011C9.79582 10.0963 9.72739 10.2636 9.62311 10.4082C9.51882 10.5527 9.38168 10.6704 9.22298 10.7516C9.06428 10.8328 8.88857 10.8751 8.71031 10.875H5.25C5.10222 10.8751 4.95586 10.8461 4.8193 10.7897C4.68273 10.7332 4.55862 10.6504 4.45406 10.5459L2.85 8.94L3.92906 12.5391C4.04352 12.9262 4.28051 13.2657 4.60441 13.5066C4.92832 13.7475 5.32165 13.8768 5.72531 13.875H21.375V12.75Z" fill="#344054"></path>
</symbol>
<symbol viewBox="0 0 20 20" fill="none" id="AirplaneLanding">
<path d="M19.6875 16.8745C19.6875 17.1231 19.5887 17.3616 19.4129 17.5374C19.2371 17.7132 18.9986 17.812 18.75 17.812H7.5C7.25136 17.812 7.0129 17.7132 6.83709 17.5374C6.66127 17.3616 6.5625 17.1231 6.5625 16.8745C6.5625 16.6259 6.66127 16.3874 6.83709 16.2116C7.0129 16.0358 7.25136 15.937 7.5 15.937H18.75C18.9986 15.937 19.2371 16.0358 19.4129 16.2116C19.5887 16.3874 19.6875 16.6259 19.6875 16.8745ZM17.2469 14.9643L3.44844 11.1003C2.72691 10.8966 2.09145 10.4632 1.63834 9.86592C1.18524 9.26859 0.9392 8.53985 0.937501 7.79012V3.7495C0.937194 3.50178 0.995787 3.25755 1.10845 3.03694C1.22111 2.81632 1.3846 2.62566 1.58545 2.48067C1.7863 2.33568 2.01874 2.24052 2.26361 2.20304C2.50847 2.16557 2.75873 2.18685 2.99375 2.26512L3.42188 2.40809C3.55613 2.45283 3.67852 2.52737 3.77986 2.62614C3.8812 2.72491 3.95886 2.84534 4.00703 2.9784L4.78125 5.12372L6.5625 5.63153V3.7495C6.56219 3.50178 6.62079 3.25755 6.73345 3.03694C6.84611 2.81632 7.0096 2.62566 7.21045 2.48067C7.4113 2.33568 7.64374 2.24052 7.88861 2.20304C8.13347 2.16557 8.38373 2.18685 8.61875 2.26512L9.04688 2.40809C9.1736 2.45033 9.28982 2.51917 9.38778 2.60998C9.48573 2.70079 9.56315 2.81149 9.61485 2.93465L11.3141 6.98544L15.9234 8.27372C16.6461 8.47688 17.2827 8.91041 17.7365 9.50844C18.1903 10.1065 18.4364 10.8363 18.4375 11.587V14.062C18.4374 14.2067 18.4039 14.3494 18.3395 14.479C18.2751 14.6085 18.1816 14.7214 18.0663 14.8088C17.9509 14.8962 17.817 14.9557 17.6748 14.9827C17.5327 15.0097 17.3862 15.0034 17.2469 14.9643ZM16.5625 11.587C16.5618 11.2456 16.4497 10.9138 16.2431 10.6421C16.0365 10.3703 15.7467 10.1735 15.418 10.0815L10.3727 8.67137C10.2365 8.6334 10.1106 8.56512 10.0046 8.47163C9.89848 8.37814 9.81493 8.26187 9.76016 8.13153L8.4375 4.97684V6.8745C8.43738 7.01949 8.40363 7.16248 8.3389 7.29223C8.27417 7.42197 8.18023 7.53493 8.06446 7.62223C7.94869 7.70953 7.81425 7.76879 7.67171 7.79534C7.52917 7.8219 7.38241 7.81503 7.24297 7.77528L3.80547 6.79637C3.66256 6.75571 3.53137 6.68165 3.4227 6.58032C3.31403 6.47899 3.23101 6.35328 3.18047 6.21356L2.8125 5.19325V7.79012C2.81306 8.13116 2.9248 8.46272 3.13077 8.73453C3.33675 9.00635 3.62573 9.20359 3.95391 9.29637L16.5625 12.8261V11.587Z" fill="#475367"></path>
</symbol>
<symbol viewBox="0 0 20 20" fill="none" id="AirplaneTakeoff">
<path d="M14.0624 16.8748C14.0624 17.1235 13.9636 17.3619 13.7878 17.5377C13.612 17.7135 13.3735 17.8123 13.1249 17.8123H1.87487C1.62623 17.8123 1.38777 17.7135 1.21196 17.5377C1.03614 17.3619 0.937369 17.1235 0.937369 16.8748C0.937369 16.6262 1.03614 16.3877 1.21196 16.2119C1.38777 16.0361 1.62623 15.9373 1.87487 15.9373H13.1249C13.3735 15.9373 13.612 16.0361 13.7878 16.2119C13.9636 16.3877 14.0624 16.6262 14.0624 16.8748ZM19.671 7.02169C19.6466 7.15238 19.5947 7.27639 19.5187 7.38549C19.4428 7.4946 19.3445 7.58629 19.2303 7.6545L7.71471 14.5311L7.70456 14.5365C7.06625 14.9113 6.32351 15.0687 5.58806 14.985C4.85261 14.9013 4.16422 14.5811 3.62643 14.0725L3.61159 14.0584L0.799087 11.3045C0.613843 11.128 0.474782 10.9087 0.394121 10.6659C0.31346 10.423 0.293668 10.1641 0.336484 9.91184C0.379299 9.65958 0.483413 9.42169 0.639676 9.21907C0.79594 9.01646 0.999572 8.85532 1.23268 8.74981L1.46237 8.63731C1.68449 8.52857 1.94059 8.512 2.17487 8.59122L4.24518 9.28966L5.35065 8.62091L3.93893 7.24825C3.74796 7.07136 3.60421 6.84956 3.52074 6.60299C3.43727 6.35643 3.41672 6.09292 3.46096 5.8364C3.50521 5.57988 3.61283 5.33848 3.77407 5.13412C3.93531 4.92976 4.14505 4.76892 4.38424 4.66622L4.42174 4.65059L4.98034 4.43966C5.19194 4.36059 5.42498 4.36059 5.63659 4.43966L9.71003 5.93731L13.6108 3.60919C14.3169 3.18807 15.1511 3.03526 15.9606 3.17872C16.7702 3.32219 17.501 3.75232 18.0194 4.39044C18.0243 4.39582 18.0287 4.40157 18.0327 4.40762L19.4889 6.27325C19.5708 6.37785 19.6294 6.49873 19.6608 6.6278C19.6922 6.75688 19.6957 6.89117 19.671 7.02169ZM17.3577 6.58887L16.5624 5.56934C16.3266 5.28202 15.9957 5.08872 15.6296 5.02451C15.2635 4.96029 14.8865 5.02942 14.5671 5.21934L10.2882 7.77403C10.1683 7.84627 10.0339 7.89077 9.89466 7.90429C9.75542 7.91781 9.61492 7.9 9.48346 7.85216L5.88971 6.52872L7.53034 8.12247C7.63307 8.22234 7.71155 8.34443 7.75974 8.47936C7.80794 8.61429 7.82456 8.75847 7.80834 8.90082C7.79212 9.04318 7.74349 9.17992 7.66618 9.30055C7.58887 9.42118 7.48494 9.52249 7.36237 9.59669L4.84362 11.1162C4.72738 11.1862 4.59732 11.2302 4.46243 11.245C4.32755 11.2598 4.19105 11.2452 4.06237 11.2022L3.0194 10.8506L4.91862 12.71C5.16281 12.9382 5.47407 13.0816 5.8062 13.1189C6.13834 13.1561 6.47365 13.0854 6.76237 12.917L17.3577 6.58887Z" fill="#475367"></path>
</symbol>
<symbol viewBox="0 0 24 24" fill="none" id="AmericanAirline">
<path d="M12.9688 21.7674C14.3416 23.9994 16.4481 23.9994 17.0398 23.9994H23.9984L15.7854 13.9434C11.9747 14.1114 10.0102 16.5354 10.4362 17.5674L12.9688 21.7674Z" fill="url(#paint0_linear_190_10467)"></path>
<path d="M10.5104 17.5451C10.5104 17.5451 10.25 17.0171 10.25 16.4171C10.25 14.0891 12.2855 12.7931 14.5814 12.2891L15.8595 13.9211C12.0488 14.0171 10.108 16.5131 10.5104 17.5451Z" fill="url(#paint1_linear_190_10467)"></path>
<path d="M13.6564 10.0566C10.1771 10.0566 7.64453 10.6566 7.64453 12.0246C7.64453 12.5526 7.81021 12.9606 8.23625 13.7526L10.5321 17.6166C10.5321 17.6166 10.2718 17.0886 10.2718 16.4886C10.2718 14.1606 12.3073 12.8646 14.6031 12.3606C15.2895 12.1926 15.9522 12.1926 16.6386 12.1926C17.2303 12.1926 17.751 12.1926 18.1771 12.3606C17.822 11.3526 17.2303 10.0566 13.6564 10.0566Z" fill="url(#paint2_linear_190_10467)"></path>
<path d="M4.59172 7.656C5.51479 9.216 5.86982 9.624 8.16568 9.624C9.86982 9.624 12.497 9.624 12.497 9.624L6.53254 1.968C5.18343 0.336 4.49704 0 3.21894 0H0L4.59172 7.656Z" fill="url(#paint3_linear_190_10467)"></path>
<defs>
<linearGradient id="paint0_linear_190_10467" x1="17.1911" y1="13.6313" x2="17.1911" y2="29.1913" gradientUnits="userSpaceOnUse">
<stop stop-color="#ED1C24"></stop>
<stop offset="0.1263" stop-color="#E81B23"></stop>
<stop offset="0.2703" stop-color="#DB1A21"></stop>
<stop offset="0.4229" stop-color="#C4171D"></stop>
<stop offset="0.5816" stop-color="#A41317"></stop>
<stop offset="0.7436" stop-color="#7B0E10"></stop>
<stop offset="0.7546" stop-color="#780E0F"></stop>
</linearGradient>
<linearGradient id="paint1_linear_190_10467" x1="10.2594" y1="14.9258" x2="15.8584" y2="14.9258" gradientUnits="userSpaceOnUse">
<stop stop-color="#69231D"></stop>
<stop offset="0.2647" stop-color="#8D2922"></stop>
<stop offset="0.5812" stop-color="#B22F26"></stop>
<stop offset="0.8377" stop-color="#C93329"></stop>
<stop offset="1" stop-color="#D1342A"></stop>
</linearGradient>
<linearGradient id="paint2_linear_190_10467" x1="9.67485" y1="14.1525" x2="15.961" y2="10.4275" gradientUnits="userSpaceOnUse">
<stop offset="0.1" stop-color="#E7EBEE"></stop>
<stop offset="0.3511" stop-color="#D5DCE0"></stop>
<stop offset="0.8549" stop-color="#A5B4BB"></stop>
<stop offset="1" stop-color="#96A7B0"></stop>
</linearGradient>
<linearGradient id="paint3_linear_190_10467" x1="6.23529" y1="10.8951" x2="6.23529" y2="0.145128" gradientUnits="userSpaceOnUse">
<stop stop-color="#1C2F72"></stop>
<stop offset="0.1275" stop-color="#174687"></stop>
<stop offset="0.4038" stop-color="#0D72AF"></stop>
<stop offset="0.6512" stop-color="#0692CC"></stop>
<stop offset="0.8584" stop-color="#02A6DE"></stop>
<stop offset="1" stop-color="#00ADE4"></stop>
</linearGradient>
</defs>
</symbol>
<symbol viewBox="0 0 24 24" fill="none" id="ArrowLeft">
<path d="M21.3744 12.0003C21.3744 12.2987 21.2559 12.5848 21.0449 12.7958C20.8339 13.0068 20.5478 13.1253 20.2494 13.1253H6.46817L11.2982 17.9543C11.5095 18.1657 11.6282 18.4523 11.6282 18.7512C11.6282 19.0501 11.5095 19.3367 11.2982 19.5481C11.0868 19.7594 10.8002 19.8782 10.5013 19.8782C10.2024 19.8782 9.91577 19.7594 9.70442 19.5481L2.95442 12.7981C2.84954 12.6936 2.76633 12.5694 2.70954 12.4326C2.65276 12.2959 2.62354 12.1493 2.62354 12.0012C2.62354 11.8532 2.65276 11.7065 2.70954 11.5698C2.76633 11.4331 2.84954 11.3089 2.95442 11.2043L9.70442 4.45434C9.80907 4.3497 9.9333 4.26669 10.07 4.21005C10.2068 4.15342 10.3533 4.12427 10.5013 4.12427C10.6493 4.12427 10.7958 4.15342 10.9326 4.21005C11.0693 4.26669 11.1935 4.3497 11.2982 4.45434C11.4028 4.55899 11.4858 4.68323 11.5425 4.81995C11.5991 4.95668 11.6282 5.10323 11.6282 5.25122C11.6282 5.39921 11.5991 5.54576 11.5425 5.68248C11.4858 5.81921 11.4028 5.94345 11.2982 6.04809L6.46817 10.8753H20.2494C20.5478 10.8753 20.8339 10.9938 21.0449 11.2048C21.2559 11.4158 21.3744 11.7019 21.3744 12.0003Z" fill="#344054"></path>
</symbol>
<symbol viewBox="0 0 20 20" fill="none" id="Baggage">
<path d="M9.0625 7.5V13.75C9.0625 13.9986 8.96373 14.2371 8.78791 14.4129C8.6121 14.5887 8.37364 14.6875 8.125 14.6875C7.87636 14.6875 7.6379 14.5887 7.46209 14.4129C7.28627 14.2371 7.1875 13.9986 7.1875 13.75V7.5C7.1875 7.25136 7.28627 7.0129 7.46209 6.83709C7.6379 6.66127 7.87636 6.5625 8.125 6.5625C8.37364 6.5625 8.6121 6.66127 8.78791 6.83709C8.96373 7.0129 9.0625 7.25136 9.0625 7.5ZM10.9375 7.5V13.75C10.9375 13.9986 11.0363 14.2371 11.2121 14.4129C11.3879 14.5887 11.6264 14.6875 11.875 14.6875C12.1236 14.6875 12.3621 14.5887 12.5379 14.4129C12.7137 14.2371 12.8125 13.9986 12.8125 13.75V7.5C12.8125 7.25136 12.7137 7.0129 12.5379 6.83709C12.3621 6.66127 12.1236 6.5625 11.875 6.5625C11.6264 6.5625 11.3879 6.66127 11.2121 6.83709C11.0363 7.0129 10.9375 7.25136 10.9375 7.5ZM16.5625 5V16.25C16.5625 16.6644 16.3979 17.0618 16.1049 17.3549C15.8118 17.6479 15.4144 17.8125 15 17.8125H14.0625V18.75C14.0625 18.9986 13.9637 19.2371 13.7879 19.4129C13.6121 19.5887 13.3736 19.6875 13.125 19.6875C12.8764 19.6875 12.6379 19.5887 12.4621 19.4129C12.2863 19.2371 12.1875 18.9986 12.1875 18.75V17.8125H7.8125V18.75C7.8125 18.9986 7.71373 19.2371 7.53791 19.4129C7.3621 19.5887 7.12364 19.6875 6.875 19.6875C6.62636 19.6875 6.3879 19.5887 6.21209 19.4129C6.03627 19.2371 5.9375 18.9986 5.9375 18.75V17.8125H5C4.5856 17.8125 4.18817 17.6479 3.89515 17.3549C3.60212 17.0618 3.4375 16.6644 3.4375 16.25V5C3.4375 4.5856 3.60212 4.18817 3.89515 3.89515C4.18817 3.60212 4.5856 3.4375 5 3.4375H6.5625V2.1875C6.5625 1.60734 6.79297 1.05094 7.2032 0.640704C7.61344 0.230468 8.16984 0 8.75 0L11.25 0C11.8302 0 12.3866 0.230468 12.7968 0.640704C13.207 1.05094 13.4375 1.60734 13.4375 2.1875V3.4375H15C15.4144 3.4375 15.8118 3.60212 16.1049 3.89515C16.3979 4.18817 16.5625 4.5856 16.5625 5ZM8.4375 3.4375H11.5625V2.1875C11.5625 2.10462 11.5296 2.02513 11.471 1.96653C11.4124 1.90792 11.3329 1.875 11.25 1.875H8.75C8.66712 1.875 8.58763 1.90792 8.52903 1.96653C8.47042 2.02513 8.4375 2.10462 8.4375 2.1875V3.4375ZM14.6875 5.3125H5.3125V15.9375H14.6875V5.3125Z" fill="#475367"></path>
</symbol>
<symbol viewBox="0 0 20 20" fill="none" id="Bar">
<path d="M16.3415 7.38594L14.64 1.61016C14.5828 1.41612 14.4645 1.24576 14.3025 1.12453C14.1406 1.0033 13.9438 0.937689 13.7415 0.9375H6.25873C6.05645 0.937689 5.85966 1.0033 5.69773 1.12453C5.53581 1.24576 5.41743 1.41612 5.36029 1.61016L3.65873 7.38594C3.3755 8.3268 3.36097 9.32811 3.61678 10.2768C3.87259 11.2255 4.38854 12.0838 5.10638 12.7547C6.19665 13.7772 7.58052 14.4314 9.06263 14.625V17.1875H6.87513C6.62649 17.1875 6.38804 17.2863 6.21222 17.4621C6.03641 17.6379 5.93763 17.8764 5.93763 18.125C5.93763 18.3736 6.03641 18.6121 6.21222 18.7879C6.38804 18.9637 6.62649 19.0625 6.87513 19.0625H13.1251C13.3738 19.0625 13.6122 18.9637 13.788 18.7879C13.9639 18.6121 14.0626 18.3736 14.0626 18.125C14.0626 17.8764 13.9639 17.6379 13.788 17.4621C13.6122 17.2863 13.3738 17.1875 13.1251 17.1875H10.9376V14.625C12.42 14.4315 13.8042 13.7773 14.8947 12.7547C15.6124 12.0837 16.1282 11.2254 16.3839 10.2767C16.6395 9.328 16.6249 8.32673 16.3415 7.38594ZM6.95951 2.8125H13.0408L14.4767 7.68828C13.6267 7.90703 12.2853 7.92266 10.4236 6.97578C8.64701 6.07656 7.18138 5.85938 6.03451 5.95469L6.95951 2.8125ZM10.0001 12.8125C8.65768 12.8141 7.36517 12.3036 6.38607 11.3852C5.92888 10.9556 5.59935 10.408 5.43391 9.80287C5.26846 9.19775 5.27353 8.55867 5.44857 7.95625C6.8892 7.53984 8.46732 8.08594 9.57904 8.64922C10.4814 9.10625 11.9369 9.68672 13.5056 9.68672C13.8803 9.68775 14.2542 9.65243 14.622 9.58125C14.4836 10.2728 14.132 10.9037 13.6165 11.3852C12.6369 12.3042 11.3434 12.8147 10.0001 12.8125Z" fill="#475367"></path>
</symbol>
<symbol viewBox="0 0 18 18" fill="none" id="Bed">
<path d="M14.625 5.0625H1.6875V3.375C1.6875 3.22582 1.62824 3.08274 1.52275 2.97725C1.41726 2.87176 1.27418 2.8125 1.125 2.8125C0.975816 2.8125 0.832742 2.87176 0.727252 2.97725C0.621763 3.08274 0.5625 3.22582 0.5625 3.375V14.625C0.5625 14.7742 0.621763 14.9173 0.727252 15.0227C0.832742 15.1282 0.975816 15.1875 1.125 15.1875C1.27418 15.1875 1.41726 15.1282 1.52275 15.0227C1.62824 14.9173 1.6875 14.7742 1.6875 14.625V12.375H16.3125V14.625C16.3125 14.7742 16.3718 14.9173 16.4773 15.0227C16.5827 15.1282 16.7258 15.1875 16.875 15.1875C17.0242 15.1875 17.1673 15.1282 17.2727 15.0227C17.3782 14.9173 17.4375 14.7742 17.4375 14.625V7.875C17.4375 7.12908 17.1412 6.41371 16.6137 5.88626C16.0863 5.35882 15.3709 5.0625 14.625 5.0625ZM1.6875 6.1875H6.75V11.25H1.6875V6.1875Z" fill="#344054"></path>
</symbol>
<symbol viewBox="0 0 20 20" fill="none" id="Calendar">
<path d="M16.25 2.1875H14.6875V1.875C14.6875 1.62636 14.5887 1.3879 14.4129 1.21209C14.2371 1.03627 13.9986 0.9375 13.75 0.9375C13.5014 0.9375 13.2629 1.03627 13.0871 1.21209C12.9113 1.3879 12.8125 1.62636 12.8125 1.875V2.1875H7.1875V1.875C7.1875 1.62636 7.08873 1.3879 6.91291 1.21209C6.7371 1.03627 6.49864 0.9375 6.25 0.9375C6.00136 0.9375 5.7629 1.03627 5.58709 1.21209C5.41127 1.3879 5.3125 1.62636 5.3125 1.875V2.1875H3.75C3.3356 2.1875 2.93817 2.35212 2.64515 2.64515C2.35212 2.93817 2.1875 3.3356 2.1875 3.75V16.25C2.1875 16.6644 2.35212 17.0618 2.64515 17.3549C2.93817 17.6479 3.3356 17.8125 3.75 17.8125H16.25C16.6644 17.8125 17.0618 17.6479 17.3549 17.3549C17.6479 17.0618 17.8125 16.6644 17.8125 16.25V3.75C17.8125 3.3356 17.6479 2.93817 17.3549 2.64515C17.0618 2.35212 16.6644 2.1875 16.25 2.1875ZM5.3125 4.0625C5.3125 4.31114 5.41127 4.5496 5.58709 4.72541C5.7629 4.90123 6.00136 5 6.25 5C6.49864 5 6.7371 4.90123 6.91291 4.72541C7.08873 4.5496 7.1875 4.31114 7.1875 4.0625H12.8125C12.8125 4.31114 12.9113 4.5496 13.0871 4.72541C13.2629 4.90123 13.5014 5 13.75 5C13.9986 5 14.2371 4.90123 14.4129 4.72541C14.5887 4.5496 14.6875 4.31114 14.6875 4.0625H15.9375V5.9375H4.0625V4.0625H5.3125ZM4.0625 15.9375V7.8125H15.9375V15.9375H4.0625Z" fill="#475367"></path>
</symbol>
<symbol viewBox="0 0 20 20" fill="none" id="CaretCircleDown">
<path d="M10 1.5625C8.33122 1.5625 6.69992 2.05735 5.31238 2.98448C3.92484 3.9116 2.84338 5.22936 2.20477 6.77111C1.56616 8.31286 1.39907 10.0094 1.72463 11.6461C2.05019 13.2828 2.85379 14.7862 4.03379 15.9662C5.2138 17.1462 6.71721 17.9498 8.35393 18.2754C9.99064 18.6009 11.6871 18.4338 13.2289 17.7952C14.7706 17.1566 16.0884 16.0752 17.0155 14.6876C17.9427 13.3001 18.4375 11.6688 18.4375 10C18.435 7.763 17.5453 5.61833 15.9635 4.03653C14.3817 2.45473 12.237 1.56498 10 1.5625ZM10 16.5625C8.70206 16.5625 7.43327 16.1776 6.35407 15.4565C5.27488 14.7354 4.43374 13.7105 3.93704 12.5114C3.44034 11.3122 3.31038 9.99272 3.5636 8.71972C3.81682 7.44672 4.44183 6.27739 5.35962 5.35961C6.2774 4.44183 7.44672 3.81681 8.71972 3.5636C9.99272 3.31038 11.3122 3.44034 12.5114 3.93704C13.7105 4.43374 14.7354 5.27487 15.4565 6.35407C16.1776 7.43327 16.5625 8.70206 16.5625 10C16.5606 11.7399 15.8686 13.408 14.6383 14.6383C13.408 15.8686 11.7399 16.5606 10 16.5625ZM13.7883 8.08672C13.8757 8.17382 13.945 8.27731 13.9923 8.39126C14.0397 8.50522 14.064 8.62739 14.064 8.75078C14.064 8.87417 14.0397 8.99634 13.9923 9.1103C13.945 9.22425 13.8757 9.32775 13.7883 9.41484L10.6633 12.5398C10.5762 12.6272 10.4727 12.6966 10.3587 12.7439C10.2448 12.7912 10.1226 12.8156 9.99922 12.8156C9.87583 12.8156 9.75366 12.7912 9.6397 12.7439C9.52575 12.6966 9.42226 12.6272 9.33516 12.5398L6.21016 9.41484C6.03404 9.23872 5.9351 8.99985 5.9351 8.75078C5.9351 8.50171 6.03404 8.26284 6.21016 8.08672C6.38628 7.9106 6.62515 7.81166 6.87422 7.81166C7.12329 7.81165 7.36216 7.9106 7.53828 8.08672L10 10.5469L12.4617 8.08438C12.5489 7.99736 12.6525 7.9284 12.7664 7.88142C12.8803 7.83444 13.0023 7.81037 13.1255 7.81059C13.2487 7.81081 13.3706 7.83531 13.4844 7.88269C13.5981 7.93007 13.7014 7.9994 13.7883 8.08672Z" fill="#98A2B3"></path>
</symbol>
<symbol viewBox="0 0 32 32" fill="none" id="CaretCircleLeft">
<path d="M16 29C18.5712 29 21.0846 28.2376 23.2224 26.8091C25.3602 25.3806 27.0265 23.3503 28.0104 20.9749C28.9944 18.5994 29.2518 15.9856 28.7502 13.4638C28.2486 10.9421 27.0105 8.62569 25.1924 6.80761C23.3743 4.98953 21.0579 3.7514 18.5362 3.24979C16.0144 2.74818 13.4005 3.00563 11.0251 3.98957C8.64967 4.97351 6.61935 6.63975 5.19089 8.77759C3.76243 10.9154 2.99999 13.4288 2.99999 16C3.00363 19.4467 4.37444 22.7512 6.81163 25.1884C9.24881 27.6256 12.5533 28.9964 16 29ZM12.2925 15.2925L17.2925 10.2925C17.3854 10.1996 17.4957 10.1259 17.6171 10.0756C17.7385 10.0253 17.8686 9.99944 18 9.99944C18.1314 9.99944 18.2615 10.0253 18.3829 10.0756C18.5043 10.1259 18.6146 10.1996 18.7075 10.2925C18.8004 10.3854 18.8741 10.4957 18.9244 10.6171C18.9747 10.7385 19.0006 10.8686 19.0006 11C19.0006 11.1314 18.9747 11.2615 18.9244 11.3829C18.8741 11.5043 18.8004 11.6146 18.7075 11.7075L14.4137 16L18.7075 20.2925C18.8951 20.4801 19.0006 20.7346 19.0006 21C19.0006 21.2654 18.8951 21.5199 18.7075 21.7075C18.5199 21.8951 18.2654 22.0006 18 22.0006C17.7346 22.0006 17.4801 21.8951 17.2925 21.7075L12.2925 16.7075C12.1995 16.6146 12.1258 16.5043 12.0754 16.3829C12.0251 16.2615 11.9992 16.1314 11.9992 16C11.9992 15.8686 12.0251 15.7385 12.0754 15.6171C12.1258 15.4957 12.1995 15.3854 12.2925 15.2925Z" fill="#F9FAFB"></path>
</symbol>
<symbol viewBox="0 0 32 32" fill="none" id="CaretCircleRight">
<path d="M16 3C13.4288 3 10.9154 3.76244 8.77759 5.1909C6.63975 6.61935 4.97351 8.64968 3.98957 11.0251C3.00563 13.4006 2.74819 16.0144 3.2498 18.5362C3.75141 21.0579 4.98953 23.3743 6.80762 25.1924C8.6257 27.0105 10.9421 28.2486 13.4638 28.7502C15.9856 29.2518 18.5995 28.9944 20.9749 28.0104C23.3503 27.0265 25.3807 25.3603 26.8091 23.2224C28.2376 21.0846 29 18.5712 29 16C28.9964 12.5533 27.6256 9.24882 25.1884 6.81163C22.7512 4.37445 19.4467 3.00364 16 3ZM19.7075 16.7075L14.7075 21.7075C14.6146 21.8004 14.5043 21.8741 14.3829 21.9244C14.2615 21.9747 14.1314 22.0006 14 22.0006C13.8686 22.0006 13.7385 21.9747 13.6171 21.9244C13.4957 21.8741 13.3854 21.8004 13.2925 21.7075C13.1996 21.6146 13.1259 21.5043 13.0756 21.3829C13.0253 21.2615 12.9994 21.1314 12.9994 21C12.9994 20.8686 13.0253 20.7385 13.0756 20.6171C13.1259 20.4957 13.1996 20.3854 13.2925 20.2925L17.5863 16L13.2925 11.7075C13.1049 11.5199 12.9994 11.2654 12.9994 11C12.9994 10.7346 13.1049 10.4801 13.2925 10.2925C13.4801 10.1049 13.7346 9.99944 14 9.99944C14.2654 9.99944 14.5199 10.1049 14.7075 10.2925L19.7075 15.2925C19.8005 15.3854 19.8742 15.4957 19.9246 15.6171C19.9749 15.7385 20.0008 15.8686 20.0008 16C20.0008 16.1314 19.9749 16.2615 19.9246 16.3829C19.8742 16.5043 19.8005 16.6146 19.7075 16.7075Z" fill="#F9FAFB"></path>
</symbol>
<symbol viewBox="0 0 20 20" fill="none" id="CaretCircleUp">
<path d="M10 1.5625C8.33122 1.5625 6.69992 2.05735 5.31238 2.98448C3.92484 3.9116 2.84338 5.22936 2.20477 6.77111C1.56616 8.31286 1.39907 10.0094 1.72463 11.6461C2.05019 13.2828 2.85379 14.7862 4.03379 15.9662C5.2138 17.1462 6.71721 17.9498 8.35393 18.2754C9.99064 18.6009 11.6871 18.4338 13.2289 17.7952C14.7706 17.1566 16.0884 16.0752 17.0155 14.6876C17.9427 13.3001 18.4375 11.6688 18.4375 10C18.435 7.763 17.5453 5.61833 15.9635 4.03653C14.3817 2.45473 12.237 1.56498 10 1.5625ZM10 16.5625C8.70206 16.5625 7.43327 16.1776 6.35407 15.4565C5.27488 14.7354 4.43374 13.7105 3.93704 12.5114C3.44034 11.3122 3.31038 9.99272 3.5636 8.71972C3.81682 7.44672 4.44183 6.27739 5.35962 5.35961C6.2774 4.44183 7.44672 3.81681 8.71972 3.5636C9.99272 3.31038 11.3122 3.44034 12.5114 3.93704C13.7105 4.43374 14.7354 5.27487 15.4565 6.35407C16.1776 7.43327 16.5625 8.70206 16.5625 10C16.5606 11.7399 15.8686 13.408 14.6383 14.6383C13.408 15.8686 11.7399 16.5606 10 16.5625ZM13.7883 10.5867C13.9644 10.7628 14.0633 11.0017 14.0633 11.2508C14.0633 11.4999 13.9644 11.7387 13.7883 11.9148C13.6122 12.091 13.3733 12.1899 13.1242 12.1899C12.8752 12.1899 12.6363 12.091 12.4602 11.9148L10 9.45312L7.53828 11.9133C7.36216 12.0894 7.12329 12.1883 6.87422 12.1883C6.62515 12.1883 6.38628 12.0894 6.21016 11.9133C6.03404 11.7372 5.9351 11.4983 5.9351 11.2492C5.9351 11.0001 6.03404 10.7613 6.21016 10.5852L9.33516 7.46016C9.42226 7.37276 9.52575 7.30341 9.6397 7.25609C9.75366 7.20877 9.87583 7.18442 9.99922 7.18442C10.1226 7.18442 10.2448 7.20877 10.3587 7.25609C10.4727 7.30341 10.5762 7.37276 10.6633 7.46016L13.7883 10.5867Z" fill="#98A2B3"></path>
</symbol>
<symbol viewBox="0 0 25 24" fill="none" id="CaretDown">
<path d="M20.531 9.53031L13.031 17.0303C12.9614 17.1 12.8787 17.1554 12.7876 17.1931C12.6966 17.2308 12.599 17.2503 12.5004 17.2503C12.4019 17.2503 12.3043 17.2308 12.2132 17.1931C12.1222 17.1554 12.0394 17.1 11.9698 17.0303L4.46979 9.53031C4.32906 9.38958 4.25 9.19871 4.25 8.99968C4.25 8.80066 4.32906 8.60979 4.46979 8.46906C4.61052 8.32833 4.80139 8.24927 5.00042 8.24927C5.19944 8.24927 5.39031 8.32833 5.53104 8.46906L12.5004 15.4394L19.4698 8.46906C19.5395 8.39938 19.6222 8.3441 19.7132 8.30639C19.8043 8.26868 19.9019 8.24927 20.0004 8.24927C20.099 8.24927 20.1965 8.26868 20.2876 8.30639C20.3786 8.3441 20.4614 8.39938 20.531 8.46906C20.6007 8.53874 20.656 8.62147 20.6937 8.71251C20.7314 8.80356 20.7508 8.90114 20.7508 8.99968C20.7508 9.09823 20.7314 9.19581 20.6937 9.28686C20.656 9.3779 20.6007 9.46063 20.531 9.53031Z" fill="#667185"></path>
</symbol>
<symbol viewBox="0 0 24 24" fill="none" id="CaretUpDown">
<path d="M17.031 15.9692C17.1008 16.0389 17.1561 16.1216 17.1938 16.2127C17.2316 16.3037 17.251 16.4013 17.251 16.4999C17.251 16.5984 17.2316 16.696 17.1938 16.7871C17.1561 16.8781 17.1008 16.9608 17.031 17.0305L12.531 21.5305C12.4614 21.6002 12.3787 21.6555 12.2876 21.6933C12.1966 21.731 12.099 21.7504 12.0004 21.7504C11.9019 21.7504 11.8043 21.731 11.7132 21.6933C11.6222 21.6555 11.5394 21.6002 11.4698 21.5305L6.96979 17.0305C6.82906 16.8898 6.75 16.6989 6.75 16.4999C6.75 16.3008 6.82906 16.11 6.96979 15.9692C7.11052 15.8285 7.30139 15.7494 7.50042 15.7494C7.69944 15.7494 7.89031 15.8285 8.03104 15.9692L12.0004 19.9395L15.9698 15.9692C16.0394 15.8995 16.1222 15.8442 16.2132 15.8064C16.3043 15.7687 16.4019 15.7493 16.5004 15.7493C16.599 15.7493 16.6966 15.7687 16.7876 15.8064C16.8787 15.8442 16.9614 15.8995 17.031 15.9692ZM8.03104 8.03048L12.0004 4.06017L15.9698 8.03048C16.1105 8.17121 16.3014 8.25027 16.5004 8.25027C16.6994 8.25027 16.8903 8.17121 17.031 8.03048C17.1718 7.88975 17.2508 7.69888 17.2508 7.49986C17.2508 7.30083 17.1718 7.10996 17.031 6.96923L12.531 2.46923C12.4614 2.3995 12.3787 2.34418 12.2876 2.30644C12.1966 2.26869 12.099 2.24927 12.0004 2.24927C11.9019 2.24927 11.8043 2.26869 11.7132 2.30644C11.6222 2.34418 11.5394 2.3995 11.4698 2.46923L6.96979 6.96923C6.82906 7.10996 6.75 7.30083 6.75 7.49986C6.75 7.69888 6.82906 7.88975 6.96979 8.03048C7.11052 8.17121 7.30139 8.25027 7.50042 8.25027C7.69944 8.25027 7.89031 8.17121 8.03104 8.03048Z" fill="#667185"></path>
</symbol>
<symbol viewBox="0 0 33 32" fill="none" id="Carts">
<path d="M17.4994 15.0002V22.0002C17.4994 22.2655 17.3941 22.5198 17.2065 22.7073C17.019 22.8949 16.7646 23.0002 16.4994 23.0002C16.2342 23.0002 15.9799 22.8949 15.7923 22.7073C15.6048 22.5198 15.4994 22.2655 15.4994 22.0002V15.0002C15.4994 14.735 15.6048 14.4807 15.7923 14.2931C15.9799 14.1056 16.2342 14.0002 16.4994 14.0002C16.7646 14.0002 17.019 14.1056 17.2065 14.2931C17.3941 14.4807 17.4994 14.735 17.4994 15.0002ZM30.4819 12.264L28.7494 25.2652C28.6852 25.7457 28.4486 26.1865 28.0837 26.5057C27.7188 26.8248 27.2505 27.0006 26.7657 27.0002H6.23318C5.74841 27.0006 5.28002 26.8248 4.91512 26.5057C4.55023 26.1865 4.31366 25.7457 4.24943 25.2652L2.51568 12.2652C2.4779 11.9826 2.50099 11.6952 2.5834 11.4222C2.66581 11.1492 2.80564 10.897 2.99351 10.6825C3.18138 10.468 3.41294 10.2962 3.67267 10.1785C3.9324 10.0608 4.21429 10 4.49943 10.0002H9.04568L15.7494 2.34149C15.8433 2.23509 15.9587 2.14986 16.088 2.09149C16.2173 2.03312 16.3576 2.00293 16.4994 2.00293C16.6413 2.00293 16.7816 2.03312 16.9109 2.09149C17.0402 2.14986 17.1556 2.23509 17.2494 2.34149L23.9532 10.0002H28.4994C28.7842 10.0004 29.0657 10.0614 29.3251 10.1792C29.5844 10.2969 29.8156 10.4687 30.0031 10.6831C30.1907 10.8974 30.3304 11.1493 30.4127 11.4219C30.4951 11.6946 30.5182 11.9817 30.4807 12.264H30.4819ZM11.7032 10.0002H21.2957L16.4994 4.51899L11.7032 10.0002ZM28.4994 12.0002H4.49943L6.23318 25.0002H26.7657L28.4994 12.0002ZM22.1044 14.9002L21.4044 21.9002C21.3906 22.0313 21.4028 22.1638 21.4404 22.2901C21.4779 22.4164 21.5401 22.5341 21.6232 22.6363C21.7064 22.7386 21.809 22.8233 21.925 22.8858C22.0411 22.9482 22.1683 22.9871 22.2994 23.0002C22.3332 23.0021 22.367 23.0021 22.4007 23.0002C22.6484 22.9999 22.8871 22.9077 23.0707 22.7414C23.2543 22.5752 23.3697 22.3467 23.3944 22.1002L24.0944 15.1002C24.121 14.8364 24.0416 14.5727 23.8737 14.3674C23.7059 14.162 23.4633 14.0318 23.1994 14.0052C22.9355 13.9787 22.6719 14.0581 22.4666 14.226C22.2612 14.3938 22.131 14.6364 22.1044 14.9002ZM10.8944 14.9002C10.8679 14.6364 10.7376 14.3938 10.5323 14.226C10.3269 14.0581 10.0633 13.9787 9.79943 14.0052C9.53554 14.0318 9.29299 14.162 9.12515 14.3674C8.9573 14.5727 8.87791 14.8364 8.90443 15.1002L9.60443 22.1002C9.6293 22.3478 9.74555 22.5771 9.93045 22.7435C10.1154 22.91 10.3557 23.0015 10.6044 23.0002C10.6382 23.0021 10.672 23.0021 10.7057 23.0002C10.8363 22.9871 10.9631 22.9484 11.0788 22.8862C11.1945 22.8241 11.2969 22.7398 11.38 22.6381C11.4631 22.5364 11.5253 22.4194 11.5632 22.2936C11.6011 22.1679 11.6138 22.0359 11.6007 21.9052L10.8944 14.9002Z" fill="#667185"></path>
</symbol>
<symbol viewBox="0 0 18 18" fill="none" id="Clock">
<path d="M9 1.40625C7.4981 1.40625 6.02993 1.85162 4.78114 2.68603C3.53236 3.52044 2.55905 4.70642 1.98429 6.094C1.40954 7.48157 1.25916 9.00842 1.55217 10.4815C1.84517 11.9545 2.56841 13.3076 3.63041 14.3696C4.69242 15.4316 6.04549 16.1548 7.51854 16.4478C8.99158 16.7408 10.5184 16.5905 11.906 16.0157C13.2936 15.441 14.4796 14.4676 15.314 13.2189C16.1484 11.9701 16.5938 10.5019 16.5938 9C16.5915 6.9867 15.7907 5.0565 14.3671 3.63287C12.9435 2.20925 11.0133 1.40848 9 1.40625ZM9 14.9062C7.83186 14.9062 6.68994 14.5599 5.71867 13.9109C4.74739 13.2619 3.99037 12.3394 3.54334 11.2602C3.09631 10.181 2.97935 8.99345 3.20724 7.84775C3.43513 6.70205 3.99765 5.64965 4.82365 4.82365C5.64966 3.99765 6.70205 3.43513 7.84775 3.20724C8.99345 2.97934 10.181 3.09631 11.2602 3.54334C12.3395 3.99037 13.2619 4.74739 13.9109 5.71866C14.5599 6.68994 14.9063 7.83185 14.9063 9C14.9046 10.5659 14.2818 12.0672 13.1745 13.1745C12.0672 14.2818 10.5659 14.9046 9 14.9062ZM13.7813 9C13.7813 9.22378 13.6924 9.43839 13.5341 9.59662C13.3759 9.75485 13.1613 9.84375 12.9375 9.84375H9C8.77623 9.84375 8.56162 9.75485 8.40338 9.59662C8.24515 9.43839 8.15625 9.22378 8.15625 9V5.0625C8.15625 4.83872 8.24515 4.62411 8.40338 4.46588C8.56162 4.30764 8.77623 4.21875 9 4.21875C9.22378 4.21875 9.43839 4.30764 9.59662 4.46588C9.75486 4.62411 9.84375 4.83872 9.84375 5.0625V8.15625H12.9375C13.1613 8.15625 13.3759 8.24514 13.5341 8.40338C13.6924 8.56161 13.7813 8.77622 13.7813 9Z" fill="#344054"></path>
</symbol>
<symbol viewBox="0 0 24 24" fill="none" id="Close">
<path d="M19.5459 17.954C19.7572 18.1653 19.876 18.452 19.876 18.7509C19.876 19.0497 19.7572 19.3364 19.5459 19.5477C19.3346 19.7591 19.0479 19.8778 18.749 19.8778C18.4501 19.8778 18.1635 19.7591 17.9521 19.5477L12 13.5937L6.0459 19.5459C5.83455 19.7572 5.54791 19.8759 5.24902 19.8759C4.95014 19.8759 4.66349 19.7572 4.45215 19.5459C4.2408 19.3345 4.12207 19.0479 4.12207 18.749C4.12207 18.4501 4.2408 18.1635 4.45215 17.9521L10.4062 11.9999L4.45402 6.04586C4.24268 5.83451 4.12395 5.54787 4.12395 5.24898C4.12395 4.9501 4.24268 4.66345 4.45402 4.45211C4.66537 4.24076 4.95201 4.12203 5.2509 4.12203C5.54978 4.12203 5.83643 4.24076 6.04777 4.45211L12 10.4062L17.954 4.45117C18.1654 4.23983 18.452 4.12109 18.7509 4.12109C19.0498 4.12109 19.3364 4.23983 19.5478 4.45117C19.7591 4.66251 19.8778 4.94916 19.8778 5.24804C19.8778 5.54693 19.7591 5.83358 19.5478 6.04492L13.5937 11.9999L19.5459 17.954Z" fill="#9E0A05"></path>
</symbol>
<symbol viewBox="0 0 33 32" fill="none" id="Commission">
<path d="M29.2913 17.6325C28.9191 17.3462 28.486 17.1496 28.0255 17.0578C27.5651 16.9661 27.0897 16.9819 26.6362 17.1038L21.4062 18.3063C21.5279 17.7922 21.5317 17.2574 21.4172 16.7417C21.3028 16.226 21.0731 15.7429 20.7454 15.3287C20.4177 14.9144 20.0005 14.5797 19.5251 14.3495C19.0496 14.1194 18.5282 13.9999 18 14H11.7425C11.217 13.9987 10.6964 14.1015 10.2109 14.3025C9.72539 14.5036 9.28451 14.7988 8.91375 15.1713L6.08625 18H2.5C1.96957 18 1.46086 18.2107 1.08579 18.5858C0.710714 18.9609 0.5 19.4696 0.5 20L0.5 25C0.5 25.5304 0.710714 26.0391 1.08579 26.4142C1.46086 26.7893 1.96957 27 2.5 27H15.5C15.5818 27 15.6632 26.99 15.7425 26.97L23.7425 24.97C23.7935 24.9579 23.8433 24.9411 23.8913 24.92L28.75 22.8525L28.805 22.8275C29.272 22.5942 29.6718 22.2458 29.9669 21.8152C30.2621 21.3846 30.4427 20.886 30.4918 20.3663C30.541 19.8466 30.457 19.3229 30.2478 18.8447C30.0387 18.3664 29.7112 17.9492 29.2962 17.6325H29.2913ZM2.5 20H5.5V25H2.5V20ZM27.9287 21.0263L23.1787 23.0488L15.375 25H7.5V19.4138L10.3287 16.5863C10.5138 16.3997 10.7341 16.2518 10.9768 16.1512C11.2195 16.0506 11.4798 15.9992 11.7425 16H18C18.3978 16 18.7794 16.158 19.0607 16.4393C19.342 16.7206 19.5 17.1022 19.5 17.5C19.5 17.8978 19.342 18.2794 19.0607 18.5607C18.7794 18.842 18.3978 19 18 19H14.5C14.2348 19 13.9804 19.1054 13.7929 19.2929C13.6054 19.4804 13.5 19.7348 13.5 20C13.5 20.2652 13.6054 20.5196 13.7929 20.7071C13.9804 20.8946 14.2348 21 14.5 21H18.5C18.5753 20.9998 18.6503 20.9914 18.7237 20.975L27.0987 19.0488L27.1375 19.0388C27.3932 18.9678 27.666 18.9939 27.9036 19.112C28.1412 19.2301 28.3267 19.4319 28.4245 19.6786C28.5222 19.9253 28.5253 20.1994 28.4331 20.4482C28.3409 20.697 28.1599 20.9029 27.925 21.0263H27.9287ZM21 12C21.2471 12.0003 21.4937 11.9802 21.7375 11.94C22.0117 12.7544 22.5133 13.4733 23.1832 14.0117C23.853 14.55 24.6629 14.8854 25.5173 14.978C26.3716 15.0706 27.2346 14.9167 28.0042 14.5344C28.7739 14.1521 29.4179 13.5574 29.8603 12.8206C30.3026 12.0839 30.5248 11.2359 30.5005 10.3769C30.4762 9.51787 30.2064 8.68379 29.7231 7.97325C29.2398 7.2627 28.5631 6.7054 27.7731 6.36724C26.9831 6.02909 26.1127 5.9242 25.265 6.065C25.001 5.28031 24.5256 4.58366 23.8912 4.05172C23.2568 3.51979 22.4879 3.17318 21.6692 3.05005C20.8505 2.92692 20.0137 3.03203 19.2509 3.35383C18.488 3.67563 17.8288 4.20163 17.3456 4.87396C16.8625 5.54628 16.5742 6.33886 16.5125 7.16447C16.4507 7.99008 16.618 8.81672 16.9958 9.55342C17.3735 10.2901 17.9472 10.9083 18.6537 11.34C19.3602 11.7716 20.1721 12 21 12ZM28.5 10.5C28.5 10.9945 28.3534 11.4778 28.0787 11.8889C27.804 12.3001 27.4135 12.6205 26.9567 12.8097C26.4999 12.9989 25.9972 13.0484 25.5123 12.952C25.0273 12.8555 24.5819 12.6174 24.2322 12.2678C23.8826 11.9181 23.6445 11.4727 23.548 10.9877C23.4516 10.5028 23.5011 10.0001 23.6903 9.54329C23.8795 9.08648 24.2 8.69603 24.6111 8.42133C25.0222 8.14662 25.5055 8 26 8C26.663 8 27.2989 8.26339 27.7678 8.73223C28.2366 9.20108 28.5 9.83696 28.5 10.5ZM21 5C21.5454 5.00027 22.0757 5.17888 22.5101 5.5086C22.9446 5.83832 23.2593 6.30105 23.4062 6.82625C22.8941 7.18662 22.4628 7.64992 22.1399 8.18652C21.8171 8.72312 21.6097 9.3212 21.5312 9.9425C21.3567 9.9802 21.1786 9.99948 21 10C20.337 10 19.7011 9.73661 19.2322 9.26777C18.7634 8.79893 18.5 8.16304 18.5 7.5C18.5 6.83696 18.7634 6.20108 19.2322 5.73223C19.7011 5.26339 20.337 5 21 5Z" fill="#667185"></path>
</symbol>
<symbol viewBox="0 0 32 32" fill="none" id="Create">
<path d="M26 4H6C5.46957 4 4.96086 4.21071 4.58579 4.58579C4.21071 4.96086 4 5.46957 4 6V26C4 26.5304 4.21071 27.0391 4.58579 27.4142C4.96086 27.7893 5.46957 28 6 28H26C26.5304 28 27.0391 27.7893 27.4142 27.4142C27.7893 27.0391 28 26.5304 28 26V6C28 5.46957 27.7893 4.96086 27.4142 4.58579C27.0391 4.21071 26.5304 4 26 4ZM26 26H6V6H26V26ZM22 16C22 16.2652 21.8946 16.5196 21.7071 16.7071C21.5196 16.8946 21.2652 17 21 17H17V21C17 21.2652 16.8946 21.5196 16.7071 21.7071C16.5196 21.8946 16.2652 22 16 22C15.7348 22 15.4804 21.8946 15.2929 21.7071C15.1054 21.5196 15 21.2652 15 21V17H11C10.7348 17 10.4804 16.8946 10.2929 16.7071C10.1054 16.5196 10 16.2652 10 16C10 15.7348 10.1054 15.4804 10.2929 15.2929C10.4804 15.1054 10.7348 15 11 15H15V11C15 10.7348 15.1054 10.4804 15.2929 10.2929C15.4804 10.1054 15.7348 10 16 10C16.2652 10 16.5196 10.1054 16.7071 10.2929C16.8946 10.4804 17 10.7348 17 11V15H21C21.2652 15 21.5196 15.1054 21.7071 15.2929C21.8946 15.4804 22 15.7348 22 16Z" fill="#667185"></path>
</symbol>
<symbol viewBox="0 0 33 32" fill="none" id="Dashboard">
<path d="M13.0002 14.5538C13.1522 14.466 13.2785 14.3397 13.3663 14.1876C13.454 14.0356 13.5002 13.8631 13.5002 13.6875V4.6875C13.4993 4.52807 13.4603 4.37116 13.3864 4.22986C13.3126 4.08857 13.206 3.96698 13.0756 3.87524C12.9452 3.7835 12.7948 3.72426 12.6368 3.70248C12.4789 3.68069 12.318 3.69699 12.1677 3.75C9.24891 4.78302 6.79433 6.8233 5.2452 9.50409C3.69608 12.1849 3.15401 15.3303 3.71643 18.375C3.74559 18.5324 3.81212 18.6806 3.91044 18.807C4.00876 18.9333 4.13599 19.0343 4.28143 19.1012C4.4125 19.1625 4.55549 19.1941 4.70018 19.1938C4.8757 19.1938 5.04814 19.1477 5.20018 19.06L13.0002 14.5538ZM11.5002 6.2025V13.11L5.51518 16.5637C5.50018 16.375 5.50018 16.185 5.50018 16C5.50196 13.973 6.06305 11.9857 7.12168 10.2571C8.1803 8.5284 9.69541 7.12539 11.5002 6.2025ZM27.7927 9.565C27.7814 9.5425 27.7702 9.51875 27.7564 9.49625C27.7427 9.47375 27.7314 9.455 27.7177 9.435C26.5715 7.47725 24.9332 5.85335 22.9654 4.72451C20.9976 3.59567 18.7688 3.00116 16.5002 3C16.235 3 15.9806 3.10536 15.7931 3.29289C15.6055 3.48043 15.5002 3.73478 15.5002 4V15.4788L5.64893 21.2162C5.53462 21.2825 5.43457 21.3708 5.35457 21.4759C5.27456 21.5811 5.2162 21.7011 5.18284 21.8289C5.14948 21.9568 5.14179 22.09 5.16022 22.2208C5.17864 22.3517 5.22281 22.4776 5.29018 22.5912C6.73552 25.0525 8.95069 26.9696 11.5938 28.0468C14.237 29.1241 17.1612 29.3015 19.9152 28.5517C22.6692 27.8019 25.0999 26.1666 26.8321 23.8982C28.5644 21.6297 29.502 18.8542 29.5002 16C29.5031 13.7427 28.9143 11.524 27.7927 9.565ZM17.5002 5.045C19.0862 5.19099 20.6216 5.67945 22.0004 6.47666C23.3793 7.27387 24.5686 8.36083 25.4864 9.6625L17.5002 14.3138V5.045ZM16.5002 27C14.7545 26.9955 13.0346 26.5777 11.4814 25.7808C9.92815 24.9839 8.58571 23.8305 7.56393 22.415L16.9889 16.9263L17.0164 16.9088L26.4877 11.3925C27.2608 13.0684 27.5997 14.9119 27.4733 16.7532C27.3469 18.5945 26.7593 20.3745 25.7645 21.929C24.7697 23.4836 23.3997 24.7629 21.7807 25.6491C20.1617 26.5353 18.3458 26.9998 16.5002 27Z" fill="#667185"></path>
</symbol>
<symbol viewBox="0 0 20 20" fill="none" id="Entertainment">
<path d="M16.8752 7.81217H10.3846L16.4893 6.20045C16.6089 6.1689 16.7211 6.114 16.8194 6.0389C16.9177 5.96379 17.0002 5.86998 17.062 5.76286C17.1239 5.65574 17.164 5.53744 17.1799 5.41477C17.1958 5.2921 17.1874 5.16748 17.1549 5.04811L16.5174 2.70436C16.4079 2.30954 16.1472 1.97378 15.7919 1.76979C15.4365 1.5658 15.0152 1.51001 14.619 1.61451L2.7182 4.75514C2.51993 4.8068 2.33394 4.89745 2.17109 5.02179C2.00825 5.14614 1.87181 5.30169 1.76976 5.47936C1.66751 5.65466 1.60136 5.84865 1.5752 6.0499C1.54904 6.25116 1.56339 6.45561 1.61742 6.65123L2.18773 8.74967V15.6247C2.18773 16.0391 2.35235 16.4365 2.64537 16.7295C2.9384 17.0225 3.33583 17.1872 3.75023 17.1872H16.2502C16.6646 17.1872 17.0621 17.0225 17.3551 16.7295C17.6481 16.4365 17.8127 16.0391 17.8127 15.6247V8.74967C17.8127 8.50103 17.714 8.26257 17.5381 8.08676C17.3623 7.91094 17.1239 7.81217 16.8752 7.81217ZM9.75726 4.83639L11.1862 5.66139L9.15882 6.19654L7.72992 5.37154L9.75726 4.83639ZM14.7924 3.50826L15.0979 4.62936L13.7596 4.98248L12.3307 4.1567L14.7924 3.50826ZM5.15648 6.05123L6.58538 6.87467L3.81976 7.60514L3.51585 6.48404L5.15648 6.05123ZM15.9377 15.3122H4.06273V9.68717H15.9377V15.3122Z" fill="#475367"></path>
</symbol>
<symbol viewBox="0 0 32 32" fill="none" id="Flights">
<path d="M23.1663 14.276L26.8088 10.8485L26.83 10.8273C27.5802 10.077 28.0017 9.05949 28.0017 7.9985C28.0017 6.93752 27.5802 5.91998 26.83 5.16975C26.0798 4.41952 25.0622 3.99805 24.0013 3.99805C22.9403 3.99805 21.9227 4.41952 21.1725 5.16975C21.1725 5.17725 21.1588 5.1835 21.1513 5.191L17.7238 8.8335L7.34876 5.0585C7.16994 4.99347 6.97628 4.98079 6.79052 5.02198C6.60475 5.06316 6.43459 5.15649 6.30001 5.291L3.30001 8.291C3.19547 8.39563 3.11544 8.52213 3.06568 8.66141C3.01593 8.80069 2.99769 8.94927 3.01227 9.09645C3.02686 9.24363 3.07391 9.38574 3.15004 9.51254C3.22616 9.63935 3.32947 9.74769 3.45251 9.82975L11.4388 15.1535L9.58626 16.9998H7.00001C6.73515 16.9999 6.48115 17.1051 6.29376 17.2923L3.29376 20.2923C3.17676 20.409 3.09051 20.5529 3.04272 20.7111C2.99494 20.8692 2.9871 21.0368 3.01991 21.1988C3.05273 21.3608 3.12517 21.5121 3.23076 21.6392C3.33636 21.7663 3.47181 21.8653 3.62501 21.9273L8.22751 23.7685L10.065 28.3623L10.0725 28.3823C10.1361 28.5361 10.2371 28.6717 10.3663 28.7767C10.4955 28.8816 10.6489 28.9527 10.8125 28.9833C10.9762 29.014 11.1449 29.0033 11.3034 28.9523C11.4618 28.9012 11.605 28.8114 11.72 28.691L14.7038 25.706C14.7971 25.6135 14.8713 25.5035 14.9222 25.3824C14.973 25.2612 14.9995 25.1312 15 24.9998V22.4135L16.845 20.5685L22.1688 28.5548C22.2508 28.6778 22.3592 28.7811 22.486 28.8572C22.6128 28.9334 22.7549 28.9804 22.9021 28.995C23.0492 29.0096 23.1978 28.9913 23.3371 28.9416C23.4764 28.8918 23.6029 28.8118 23.7075 28.7073L26.7075 25.7073C26.842 25.5727 26.9354 25.4025 26.9765 25.2167C27.0177 25.031 27.005 24.8373 26.94 24.6585L23.1663 14.276ZM23.1575 26.4298L17.8338 18.4448C17.7521 18.3208 17.644 18.2165 17.517 18.1395C17.3901 18.0626 17.2477 18.0148 17.1 17.9998C17.0663 17.9998 17.0338 17.9998 17.0013 17.9998C16.8698 17.9998 16.7397 18.0258 16.6183 18.0762C16.4969 18.1266 16.3866 18.2004 16.2938 18.2935L13.2938 21.2935C13.1061 21.4807 13.0005 21.7347 13 21.9998V24.586L11.3663 26.2198L9.92876 22.6248C9.87846 22.4999 9.8035 22.3866 9.70834 22.2914C9.61319 22.1963 9.49982 22.1213 9.37501 22.071L5.78251 20.6335L7.41501 18.9998H10C10.1314 18.9999 10.2615 18.9741 10.3829 18.9239C10.5043 18.8737 10.6146 18.8001 10.7075 18.7073L13.7075 15.7073C13.8123 15.6026 13.8925 15.476 13.9424 15.3366C13.9923 15.1972 14.0106 15.0485 13.996 14.9011C13.9814 14.7538 13.9343 14.6115 13.858 14.4846C13.7818 14.3577 13.6783 14.2493 13.555 14.1673L5.57001 8.84225L7.25751 7.156L17.66 10.9385C17.8433 11.0058 18.0423 11.0181 18.2324 10.9736C18.4226 10.9292 18.5955 10.8301 18.73 10.6885L22.5975 6.57475C22.9745 6.20881 23.4803 6.00589 24.0056 6.00985C24.531 6.0138 25.0337 6.22432 25.4051 6.59589C25.7765 6.96747 25.9868 7.47026 25.9905 7.99562C25.9943 8.52098 25.7911 9.0267 25.425 9.4035L21.3163 13.2698C21.1747 13.4042 21.0756 13.5772 21.0311 13.7673C20.9867 13.9575 20.9989 14.1565 21.0663 14.3398L24.8488 24.7423L23.1575 26.4298Z" fill="#667185"></path>
</symbol>
<symbol viewBox="0 0 20 20" fill="none" id="ForkKnife">
<path d="M5.3125 6.87532V3.12532C5.3125 2.87668 5.41127 2.63823 5.58709 2.46241C5.7629 2.28659 6.00136 2.18782 6.25 2.18782C6.49864 2.18782 6.7371 2.28659 6.91291 2.46241C7.08873 2.63823 7.1875 2.87668 7.1875 3.12532V6.87532C7.1875 7.12396 7.08873 7.36242 6.91291 7.53824C6.7371 7.71405 6.49864 7.81282 6.25 7.81282C6.00136 7.81282 5.7629 7.71405 5.58709 7.53824C5.41127 7.36242 5.3125 7.12396 5.3125 6.87532ZM17.1875 3.12532V17.5003C17.1875 17.749 17.0887 17.9874 16.9129 18.1632C16.7371 18.3391 16.4986 18.4378 16.25 18.4378C16.0014 18.4378 15.7629 18.3391 15.5871 18.1632C15.4113 17.9874 15.3125 17.749 15.3125 17.5003V14.0628H11.875C11.6264 14.0628 11.3879 13.9641 11.2121 13.7882C11.0363 13.6124 10.9375 13.374 10.9375 13.1253C10.9668 11.6035 11.1588 10.0891 11.5102 8.60813C12.2984 5.34563 13.8094 3.1511 15.8805 2.26595C16.0229 2.20486 16.1782 2.18004 16.3326 2.19369C16.487 2.20735 16.6356 2.25906 16.7651 2.3442C16.8945 2.42934 17.0009 2.54525 17.0746 2.68157C17.1484 2.81788 17.1871 2.97035 17.1875 3.12532ZM15.3125 4.91595C14.2656 6.01595 13.6719 7.65657 13.3414 9.01438C13.0941 10.0574 12.9316 11.1186 12.8555 12.1878H15.3125V4.91595ZM10 3.0472C9.97928 2.79856 9.86064 2.56833 9.67017 2.40717C9.4797 2.246 9.23302 2.1671 8.98438 2.18782C8.73573 2.20854 8.50551 2.32719 8.34434 2.51765C8.18318 2.70812 8.10428 2.95481 8.125 3.20345L8.4375 6.91126C8.4375 7.49142 8.20703 8.04782 7.7968 8.45806C7.38656 8.86829 6.83016 9.09876 6.25 9.09876C5.66984 9.09876 5.11344 8.86829 4.7032 8.45806C4.29297 8.04782 4.0625 7.49142 4.0625 6.91126L4.375 3.20345C4.38526 3.08033 4.37117 2.9564 4.33353 2.83873C4.2959 2.72107 4.23546 2.61196 4.15566 2.51765C4.07585 2.42334 3.97826 2.34567 3.86844 2.28908C3.75863 2.23249 3.63874 2.19808 3.51562 2.18782C3.39251 2.17756 3.26858 2.19165 3.15091 2.22929C3.03324 2.26692 2.92414 2.32737 2.82983 2.40717C2.73552 2.48697 2.65785 2.58456 2.60126 2.69438C2.54467 2.8042 2.51026 2.92408 2.5 3.0472L2.1875 6.7972C2.1875 6.82376 2.1875 6.84954 2.1875 6.87532C2.189 7.78931 2.49807 8.67619 3.06495 9.39314C3.63182 10.1101 4.4235 10.6154 5.3125 10.8277V17.5003C5.3125 17.749 5.41127 17.9874 5.58709 18.1632C5.7629 18.3391 6.00136 18.4378 6.25 18.4378C6.49864 18.4378 6.7371 18.3391 6.91291 18.1632C7.08873 17.9874 7.1875 17.749 7.1875 17.5003V10.8277C8.0765 10.6154 8.86818 10.1101 9.43505 9.39314C10.0019 8.67619 10.311 7.78931 10.3125 6.87532C10.3125 6.84954 10.3125 6.82376 10.3125 6.7972L10 3.0472Z" fill="#475367"></path>
</symbol>
<symbol viewBox="0 0 32 32" fill="none" id="Hotels1">
<path d="M30 26.0003H28V12.0003C28 11.4699 27.7893 10.9612 27.4142 10.5861C27.0391 10.211 26.5304 10.0003 26 10.0003H18V4.00032C18.0002 3.63815 17.9021 3.28272 17.7161 2.97195C17.5301 2.66118 17.2633 2.40675 16.944 2.23581C16.6247 2.06487 16.265 1.98384 15.9032 2.00137C15.5415 2.01889 15.1913 2.13432 14.89 2.33532L4.89 9.00032C4.61567 9.18335 4.39086 9.43137 4.23558 9.7223C4.0803 10.0132 3.99937 10.338 4 10.6678V26.0003H2C1.73478 26.0003 1.48043 26.1057 1.29289 26.2932C1.10536 26.4808 1 26.7351 1 27.0003C1 27.2655 1.10536 27.5199 1.29289 27.7074C1.48043 27.895 1.73478 28.0003 2 28.0003H30C30.2652 28.0003 30.5196 27.895 30.7071 27.7074C30.8946 27.5199 31 27.2655 31 27.0003C31 26.7351 30.8946 26.4808 30.7071 26.2932C30.5196 26.1057 30.2652 26.0003 30 26.0003ZM26 12.0003V26.0003H18V12.0003H26ZM6 10.6678L16 4.00032V26.0003H6V10.6678ZM14 14.0003V16.0003C14 16.2655 13.8946 16.5199 13.7071 16.7074C13.5196 16.895 13.2652 17.0003 13 17.0003C12.7348 17.0003 12.4804 16.895 12.2929 16.7074C12.1054 16.5199 12 16.2655 12 16.0003V14.0003C12 13.7351 12.1054 13.4808 12.2929 13.2932C12.4804 13.1057 12.7348 13.0003 13 13.0003C13.2652 13.0003 13.5196 13.1057 13.7071 13.2932C13.8946 13.4808 14 13.7351 14 14.0003ZM10 14.0003V16.0003C10 16.2655 9.89464 16.5199 9.70711 16.7074C9.51957 16.895 9.26522 17.0003 9 17.0003C8.73478 17.0003 8.48043 16.895 8.29289 16.7074C8.10536 16.5199 8 16.2655 8 16.0003V14.0003C8 13.7351 8.10536 13.4808 8.29289 13.2932C8.48043 13.1057 8.73478 13.0003 9 13.0003C9.26522 13.0003 9.51957 13.1057 9.70711 13.2932C9.89464 13.4808 10 13.7351 10 14.0003ZM10 21.0003V23.0003C10 23.2655 9.89464 23.5199 9.70711 23.7074C9.51957 23.895 9.26522 24.0003 9 24.0003C8.73478 24.0003 8.48043 23.895 8.29289 23.7074C8.10536 23.5199 8 23.2655 8 23.0003V21.0003C8 20.7351 8.10536 20.4808 8.29289 20.2932C8.48043 20.1057 8.73478 20.0003 9 20.0003C9.26522 20.0003 9.51957 20.1057 9.70711 20.2932C9.89464 20.4808 10 20.7351 10 21.0003ZM14 21.0003V23.0003C14 23.2655 13.8946 23.5199 13.7071 23.7074C13.5196 23.895 13.2652 24.0003 13 24.0003C12.7348 24.0003 12.4804 23.895 12.2929 23.7074C12.1054 23.5199 12 23.2655 12 23.0003V21.0003C12 20.7351 12.1054 20.4808 12.2929 20.2932C12.4804 20.1057 12.7348 20.0003 13 20.0003C13.2652 20.0003 13.5196 20.1057 13.7071 20.2932C13.8946 20.4808 14 20.7351 14 21.0003Z" fill="#667185"></path>
</symbol>
<symbol viewBox="0 0 24 24" fill="none" id="Hotels2">
<path d="M22.5 16.8748H22.125V5.7307L22.7353 5.60039C22.8818 5.57171 23.0212 5.51415 23.1453 5.43106C23.2693 5.34798 23.3756 5.24102 23.4579 5.11644C23.5402 4.99186 23.5969 4.85215 23.6246 4.70544C23.6524 4.55873 23.6506 4.40796 23.6195 4.26193C23.5884 4.1159 23.5286 3.97752 23.4434 3.85486C23.3583 3.7322 23.2496 3.62772 23.1236 3.5475C22.9977 3.46728 22.8571 3.41293 22.7099 3.38762C22.5628 3.36231 22.4121 3.36654 22.2666 3.40008L1.26656 7.90008C0.995421 7.95858 0.755451 8.11519 0.592735 8.33983C0.430019 8.56447 0.35603 8.84131 0.384977 9.11717C0.413924 9.39304 0.543766 9.64849 0.749567 9.83446C0.955369 10.0204 1.22262 10.1238 1.5 10.1248C1.5797 10.1249 1.65919 10.1167 1.73719 10.1004L1.87594 10.0704V16.8748H1.5C1.20163 16.8748 0.915483 16.9933 0.704505 17.2043C0.493526 17.4152 0.375 17.7014 0.375 17.9998C0.375 18.2981 0.493526 18.5843 0.704505 18.7953C0.915483 19.0062 1.20163 19.1248 1.5 19.1248H22.5C22.7984 19.1248 23.0845 19.0062 23.2955 18.7953C23.5065 18.5843 23.625 18.2981 23.625 17.9998C23.625 17.7014 23.5065 17.4152 23.2955 17.2043C23.0845 16.9933 22.7984 16.8748 22.5 16.8748ZM4.125 9.58758L19.875 6.21258V16.8748H18V11.2498C18 10.9514 17.8815 10.6652 17.6705 10.4543C17.4595 10.2433 17.1734 10.1248 16.875 10.1248H7.125C6.82663 10.1248 6.54048 10.2433 6.3295 10.4543C6.11853 10.6652 6 10.9514 6 11.2498V16.8748H4.125V9.58758ZM15.75 13.4998H8.25V12.3748H15.75V13.4998ZM8.25 15.7498H15.75V16.8748H8.25V15.7498Z" fill="white"></path>
</symbol>
<symbol viewBox="0 0 32 32" fill="none" id="House">
<path d="M27.3538 12.9712L17.3538 3.5362C17.3489 3.53193 17.3443 3.52734 17.34 3.52245C16.9718 3.18762 16.492 3.00208 15.9944 3.00208C15.4967 3.00208 15.0169 3.18762 14.6488 3.52245L14.635 3.5362L4.64625 12.9712C4.4425 13.1586 4.27985 13.3862 4.16861 13.6396C4.05737 13.8931 3.99996 14.1669 4 14.4437V25.9999C4 26.5304 4.21071 27.0391 4.58579 27.4142C4.96086 27.7892 5.46957 27.9999 6 27.9999H12C12.5304 27.9999 13.0391 27.7892 13.4142 27.4142C13.7893 27.0391 14 26.5304 14 25.9999V19.9999H18V25.9999C18 26.5304 18.2107 27.0391 18.5858 27.4142C18.9609 27.7892 19.4696 27.9999 20 27.9999H26C26.5304 27.9999 27.0391 27.7892 27.4142 27.4142C27.7893 27.0391 28 26.5304 28 25.9999V14.4437C28 14.1669 27.9426 13.8931 27.8314 13.6396C27.7201 13.3862 27.5575 13.1586 27.3538 12.9712ZM26 25.9999H20V19.9999C20 19.4695 19.7893 18.9608 19.4142 18.5857C19.0391 18.2107 18.5304 17.9999 18 17.9999H14C13.4696 17.9999 12.9609 18.2107 12.5858 18.5857C12.2107 18.9608 12 19.4695 12 19.9999V25.9999H6V14.4437L6.01375 14.4312L16 4.99995L25.9875 14.4287L26.0012 14.4412L26 25.9999Z" fill="#667185"></path>
</symbol>
<symbol viewBox="0 0 32 32" fill="none" id="Immigration">
<path d="M13 11V23C13 23.2652 12.8946 23.5196 12.7071 23.7071C12.5196 23.8946 12.2652 24 12 24C11.7348 24 11.4804 23.8946 11.2929 23.7071C11.1054 23.5196 11 23.2652 11 23V11C11 10.7348 11.1054 10.4804 11.2929 10.2929C11.4804 10.1054 11.7348 10 12 10C12.2652 10 12.5196 10.1054 12.7071 10.2929C12.8946 10.4804 13 10.7348 13 11ZM16 10C15.7348 10 15.4804 10.1054 15.2929 10.2929C15.1054 10.4804 15 10.7348 15 11V23C15 23.2652 15.1054 23.5196 15.2929 23.7071C15.4804 23.8946 15.7348 24 16 24C16.2652 24 16.5196 23.8946 16.7071 23.7071C16.8946 23.5196 17 23.2652 17 23V11C17 10.7348 16.8946 10.4804 16.7071 10.2929C16.5196 10.1054 16.2652 10 16 10ZM20 10C19.7348 10 19.4804 10.1054 19.2929 10.2929C19.1054 10.4804 19 10.7348 19 11V23C19 23.2652 19.1054 23.5196 19.2929 23.7071C19.4804 23.8946 19.7348 24 20 24C20.2652 24 20.5196 23.8946 20.7071 23.7071C20.8946 23.5196 21 23.2652 21 23V11C21 10.7348 20.8946 10.4804 20.7071 10.2929C20.5196 10.1054 20.2652 10 20 10ZM26 8V26C26 26.5304 25.7893 27.0391 25.4142 27.4142C25.0391 27.7893 24.5304 28 24 28H22V30C22 30.2652 21.8946 30.5196 21.7071 30.7071C21.5196 30.8946 21.2652 31 21 31C20.7348 31 20.4804 30.8946 20.2929 30.7071C20.1054 30.5196 20 30.2652 20 30V28H12V30C12 30.2652 11.8946 30.5196 11.7071 30.7071C11.5196 30.8946 11.2652 31 11 31C10.7348 31 10.4804 30.8946 10.2929 30.7071C10.1054 30.5196 10 30.2652 10 30V28H8C7.46957 28 6.96086 27.7893 6.58579 27.4142C6.21071 27.0391 6 26.5304 6 26V8C6 7.46957 6.21071 6.96086 6.58579 6.58579C6.96086 6.21071 7.46957 6 8 6H11V3C11 2.20435 11.3161 1.44129 11.8787 0.87868C12.4413 0.31607 13.2044 0 14 0L18 0C18.7956 0 19.5587 0.31607 20.1213 0.87868C20.6839 1.44129 21 2.20435 21 3V6H24C24.5304 6 25.0391 6.21071 25.4142 6.58579C25.7893 6.96086 26 7.46957 26 8ZM13 6H19V3C19 2.73478 18.8946 2.48043 18.7071 2.29289C18.5196 2.10536 18.2652 2 18 2H14C13.7348 2 13.4804 2.10536 13.2929 2.29289C13.1054 2.48043 13 2.73478 13 3V6ZM24 26V8H8V26H24Z" fill="#667185"></path>
</symbol>
<symbol viewBox="0 0 18 18" fill="none" id="MapPin">
<path d="M9 4.21875C8.38811 4.21875 7.78997 4.4002 7.2812 4.74014C6.77244 5.08009 6.37591 5.56326 6.14175 6.12857C5.90759 6.69388 5.84632 7.31593 5.9657 7.91606C6.08507 8.51619 6.37972 9.06744 6.81239 9.50011C7.24506 9.93278 7.79631 10.2274 8.39644 10.3468C8.99657 10.4662 9.61862 10.4049 10.1839 10.1708C10.7492 9.93659 11.2324 9.54006 11.5724 9.03129C11.9123 8.52253 12.0938 7.92439 12.0938 7.3125C12.0928 6.49227 11.7666 5.70591 11.1866 5.12592C10.6066 4.54593 9.82023 4.21968 9 4.21875ZM9 8.71875C8.72187 8.71875 8.44999 8.63628 8.21873 8.48175C7.98747 8.32723 7.80723 8.10761 7.70079 7.85065C7.59436 7.59369 7.56651 7.31094 7.62077 7.03815C7.67503 6.76537 7.80896 6.5148 8.00563 6.31813C8.2023 6.12146 8.45287 5.98753 8.72565 5.93327C8.99844 5.87901 9.28119 5.90686 9.53815 6.01329C9.79511 6.11973 10.0147 6.29997 10.1693 6.53123C10.3238 6.76249 10.4062 7.03437 10.4062 7.3125C10.4062 7.68546 10.2581 8.04315 9.99437 8.30687C9.73065 8.57059 9.37296 8.71875 9 8.71875ZM9 0.84375C7.28495 0.845611 5.64068 1.52774 4.42796 2.74046C3.21524 3.95318 2.53311 5.59745 2.53125 7.3125C2.53125 12.7519 8.27156 16.8328 8.51625 17.0037C8.65805 17.1029 8.82693 17.1561 9 17.1561C9.17307 17.1561 9.34195 17.1029 9.48375 17.0037C10.571 16.2024 11.5657 15.2827 12.4495 14.2615C14.4246 11.9932 15.4688 9.58852 15.4688 7.3125C15.4669 5.59745 14.7848 3.95318 13.572 2.74046C12.3593 1.52774 10.715 0.845611 9 0.84375ZM11.2008 13.128C10.5304 13.8981 9.79398 14.6082 9 15.2501C8.20602 14.6082 7.46962 13.8981 6.79922 13.128C5.625 11.7682 4.21875 9.65461 4.21875 7.3125C4.21875 6.04443 4.72249 4.8283 5.61915 3.93165C6.5158 3.03499 7.73193 2.53125 9 2.53125C10.2681 2.53125 11.4842 3.03499 12.3809 3.93165C13.2775 4.8283 13.7812 6.04443 13.7812 7.3125C13.7813 9.65461 12.375 11.7682 11.2008 13.128Z" fill="#0D6EFD"></path>
</symbol>
<symbol viewBox="0 0 32 32" fill="none" id="Medical">
<path d="M27 8H22V7C22 6.20435 21.6839 5.44129 21.1213 4.87868C20.5587 4.31607 19.7956 4 19 4H13C12.2044 4 11.4413 4.31607 10.8787 4.87868C10.3161 5.44129 10 6.20435 10 7V8H5C4.46957 8 3.96086 8.21071 3.58579 8.58579C3.21071 8.96086 3 9.46957 3 10V26C3 26.5304 3.21071 27.0391 3.58579 27.4142C3.96086 27.7893 4.46957 28 5 28H27C27.5304 28 28.0391 27.7893 28.4142 27.4142C28.7893 27.0391 29 26.5304 29 26V10C29 9.46957 28.7893 8.96086 28.4142 8.58579C28.0391 8.21071 27.5304 8 27 8ZM12 7C12 6.73478 12.1054 6.48043 12.2929 6.29289C12.4804 6.10536 12.7348 6 13 6H19C19.2652 6 19.5196 6.10536 19.7071 6.29289C19.8946 6.48043 20 6.73478 20 7V8H12V7ZM27 26H5V10H27V26ZM20 18C20 18.2652 19.8946 18.5196 19.7071 18.7071C19.5196 18.8946 19.2652 19 19 19H17V21C17 21.2652 16.8946 21.5196 16.7071 21.7071C16.5196 21.8946 16.2652 22 16 22C15.7348 22 15.4804 21.8946 15.2929 21.7071C15.1054 21.5196 15 21.2652 15 21V19H13C12.7348 19 12.4804 18.8946 12.2929 18.7071C12.1054 18.5196 12 18.2652 12 18C12 17.7348 12.1054 17.4804 12.2929 17.2929C12.4804 17.1054 12.7348 17 13 17H15V15C15 14.7348 15.1054 14.4804 15.2929 14.2929C15.4804 14.1054 15.7348 14 16 14C16.2652 14 16.5196 14.1054 16.7071 14.2929C16.8946 14.4804 17 14.7348 17 15V17H19C19.2652 17 19.5196 17.1054 19.7071 17.2929C19.8946 17.4804 20 17.7348 20 18Z" fill="#667185"></path>
</symbol>
<symbol viewBox="0 0 33 32" fill="none" id="Notification">
<path d="M28.2255 21.9925C27.5318 20.7975 26.5005 17.4163 26.5005 13C26.5005 10.3478 25.4469 7.8043 23.5716 5.92893C21.6962 4.05357 19.1527 3 16.5005 3C13.8483 3 11.3048 4.05357 9.42944 5.92893C7.55407 7.8043 6.5005 10.3478 6.5005 13C6.5005 17.4175 5.468 20.7975 4.77425 21.9925C4.59709 22.2963 4.50317 22.6415 4.50196 22.9931C4.50076 23.3448 4.59231 23.6906 4.76738 23.9956C4.94245 24.3006 5.19485 24.5541 5.49914 24.7304C5.80342 24.9068 6.14882 24.9997 6.5005 25H11.6018C11.8325 26.1289 12.446 27.1436 13.3387 27.8722C14.2313 28.6009 15.3482 28.9989 16.5005 28.9989C17.6528 28.9989 18.7697 28.6009 19.6623 27.8722C20.555 27.1436 21.1685 26.1289 21.3993 25H26.5005C26.8521 24.9995 27.1973 24.9064 27.5014 24.73C27.8055 24.5535 28.0578 24.3 28.2327 23.9951C28.4076 23.6901 28.4991 23.3444 28.4978 22.9928C28.4965 22.6412 28.4026 22.2962 28.2255 21.9925ZM16.5005 27C15.8803 26.9998 15.2754 26.8074 14.769 26.4492C14.2626 26.0911 13.8797 25.5848 13.673 25H19.328C19.1213 25.5848 18.7384 26.0911 18.232 26.4492C17.7257 26.8074 17.1207 26.9998 16.5005 27ZM6.5005 23C7.463 21.345 8.5005 17.51 8.5005 13C8.5005 10.8783 9.34336 8.84344 10.8436 7.34315C12.3439 5.84285 14.3788 5 16.5005 5C18.6222 5 20.6571 5.84285 22.1574 7.34315C23.6576 8.84344 24.5005 10.8783 24.5005 13C24.5005 17.5063 25.5355 21.3412 26.5005 23H6.5005Z" fill="#667185"></path>
</symbol>
<symbol viewBox="0 0 32 32" fill="none" id="Package">
<path d="M27.96 8.26828L16.96 2.24953C16.6661 2.08714 16.3358 2.00195 16 2.00195C15.6642 2.00195 15.3339 2.08714 15.04 2.24953L4.04 8.27078C3.72586 8.44267 3.46363 8.69573 3.28069 9.00357C3.09775 9.3114 3.00081 9.6627 3 10.0208V21.9758C3.00081 22.3339 3.09775 22.6852 3.28069 22.993C3.46363 23.3008 3.72586 23.5539 4.04 23.7258L15.04 29.747C15.3339 29.9094 15.6642 29.9946 16 29.9946C16.3358 29.9946 16.6661 29.9094 16.96 29.747L27.96 23.7258C28.2741 23.5539 28.5364 23.3008 28.7193 22.993C28.9023 22.6852 28.9992 22.3339 29 21.9758V10.022C28.9999 9.66331 28.9032 9.31123 28.7203 9.00268C28.5373 8.69413 28.2747 8.44047 27.96 8.26828ZM16 3.99953L26.0425 9.49953L22.3213 11.537L12.2775 6.03703L16 3.99953ZM16 14.9995L5.9575 9.49953L10.195 7.17953L20.2375 12.6795L16 14.9995ZM5 11.2495L15 16.722V27.4458L5 21.977V11.2495ZM27 21.972L17 27.4458V16.727L21 14.5383V18.9995C21 19.2648 21.1054 19.5191 21.2929 19.7066C21.4804 19.8942 21.7348 19.9995 22 19.9995C22.2652 19.9995 22.5196 19.8942 22.7071 19.7066C22.8946 19.5191 23 19.2648 23 18.9995V13.4433L27 11.2495V21.9708V21.972Z" fill="#667185"></path>
</symbol>
<symbol viewBox="0 0 33 32" fill="none" id="PlanTrip">
<path d="M12.2081 13.2921C12.301 13.385 12.3748 13.4952 12.4251 13.6166C12.4754 13.738 12.5013 13.8682 12.5013 13.9996C12.5013 14.131 12.4754 14.2611 12.4251 14.3825C12.3748 14.5039 12.301 14.6142 12.2081 14.7071L8.20806 18.7071C8.11518 18.8001 8.00489 18.8738 7.8835 18.9241C7.7621 18.9745 7.63197 19.0004 7.50056 19.0004C7.36914 19.0004 7.23901 18.9745 7.11762 18.9241C6.99622 18.8738 6.88593 18.8001 6.79306 18.7071L4.79306 16.7071C4.70015 16.6142 4.62645 16.5039 4.57616 16.3825C4.52588 16.2611 4.5 16.131 4.5 15.9996C4.5 15.7342 4.60542 15.4797 4.79306 15.2921C4.9807 15.1044 5.23519 14.999 5.50056 14.999C5.76592 14.999 6.02042 15.1044 6.20806 15.2921L7.50056 16.5858L10.7931 13.2921C10.8859 13.1991 10.9962 13.1253 11.1176 13.075C11.239 13.0247 11.3691 12.9988 11.5006 12.9988C11.632 12.9988 11.7621 13.0247 11.8835 13.075C12.0049 13.1253 12.1152 13.1991 12.2081 13.2921ZM10.7931 5.29208L7.50056 8.58583L6.20806 7.29208C6.02042 7.10444 5.76592 6.99902 5.50056 6.99902C5.23519 6.99902 4.9807 7.10444 4.79306 7.29208C4.60542 7.47972 4.5 7.73422 4.5 7.99958C4.5 8.26494 4.60542 8.51944 4.79306 8.70708L6.79306 10.7071C6.88593 10.8001 6.99622 10.8738 7.11762 10.9241C7.23901 10.9745 7.36914 11.0004 7.50056 11.0004C7.63197 11.0004 7.7621 10.9745 7.8835 10.9241C8.00489 10.8738 8.11518 10.8001 8.20806 10.7071L12.2081 6.70708C12.3957 6.51944 12.5011 6.26494 12.5011 5.99958C12.5011 5.73422 12.3957 5.47972 12.2081 5.29208C12.0204 5.10444 11.7659 4.99902 11.5006 4.99902C11.2352 4.99902 10.9807 5.10444 10.7931 5.29208ZM10.7931 21.2921L7.50056 24.5858L6.20806 23.2921C6.11515 23.1992 6.00485 23.1255 5.88345 23.0752C5.76206 23.0249 5.63195 22.999 5.50056 22.999C5.36916 22.999 5.23905 23.0249 5.11766 23.0752C4.99627 23.1255 4.88597 23.1992 4.79306 23.2921C4.70015 23.385 4.62645 23.4953 4.57616 23.6167C4.52588 23.7381 4.5 23.8682 4.5 23.9996C4.5 24.131 4.52588 24.2611 4.57616 24.3825C4.62645 24.5039 4.70015 24.6142 4.79306 24.7071L6.79306 26.7071C6.88593 26.8001 6.99622 26.8738 7.11762 26.9241C7.23901 26.9745 7.36914 27.0004 7.50056 27.0004C7.63197 27.0004 7.7621 26.9745 7.8835 26.9241C8.00489 26.8738 8.11518 26.8001 8.20806 26.7071L12.2081 22.7071C12.3957 22.5194 12.5011 22.2649 12.5011 21.9996C12.5011 21.7342 12.3957 21.4797 12.2081 21.2921C12.0204 21.1044 11.7659 20.999 11.5006 20.999C11.2352 20.999 10.9807 21.1044 10.7931 21.2921ZM27.5006 5.99958H16.5006C16.2353 5.99958 15.981 6.10494 15.7934 6.29247C15.6059 6.48001 15.5006 6.73436 15.5006 6.99958V8.99958C15.5006 9.2648 15.6059 9.51915 15.7934 9.70669C15.981 9.89422 16.2353 9.99958 16.5006 9.99958H27.5006C27.7658 9.99958 28.0201 9.89422 28.2077 9.70669C28.3952 9.51915 28.5006 9.2648 28.5006 8.99958V6.99958C28.5006 6.73436 28.3952 6.48001 28.2077 6.29247C28.0201 6.10494 27.7658 5.99958 27.5006 5.99958ZM27.5006 21.9996H16.5006C16.2353 21.9996 15.981 22.1049 15.7934 22.2925C15.6059 22.48 15.5006 22.7344 15.5006 22.9996V24.9996C15.5006 25.2648 15.6059 25.5192 15.7934 25.7067C15.981 25.8942 16.2353 25.9996 16.5006 25.9996H27.5006C27.7658 25.9996 28.0201 25.8942 28.2077 25.7067C28.3952 25.5192 28.5006 25.2648 28.5006 24.9996V22.9996C28.5006 22.7344 28.3952 22.48 28.2077 22.2925C28.0201 22.1049 27.7658 21.9996 27.5006 21.9996ZM27.5006 13.9996H16.5006C16.2353 13.9996 15.981 14.1049 15.7934 14.2925C15.6059 14.48 15.5006 14.7344 15.5006 14.9996V16.9996C15.5006 17.2648 15.6059 17.5192 15.7934 17.7067C15.981 17.8942 16.2353 17.9996 16.5006 17.9996H27.5006C27.7658 17.9996 28.0201 17.8942 28.2077 17.7067C28.3952 17.5192 28.5006 17.2648 28.5006 16.9996V14.9996C28.5006 14.7344 28.3952 14.48 28.2077 14.2925C28.0201 14.1049 27.7658 13.9996 27.5006 13.9996Z" fill="#344054"></path>
</symbol>
<symbol viewBox="0 0 20 20" fill="none" id="Pool">
<path d="M6.875 11.6711C7.12364 11.6711 7.3621 11.5723 7.53791 11.3965C7.71373 11.2207 7.8125 10.9822 7.8125 10.7336V10.625H12.1875V10.882C12.1875 11.1307 12.2863 11.3691 12.4621 11.5449C12.6379 11.7208 12.8764 11.8195 13.125 11.8195C13.3736 11.8195 13.6121 11.7208 13.7879 11.5449C13.9637 11.3691 14.0625 11.1307 14.0625 10.882V2.5C14.0625 2.25136 13.9637 2.0129 13.7879 1.83709C13.6121 1.66127 13.3736 1.5625 13.125 1.5625C12.8764 1.5625 12.6379 1.66127 12.4621 1.83709C12.2863 2.0129 12.1875 2.25136 12.1875 2.5V3.125H7.8125V2.5C7.8125 2.25136 7.71373 2.0129 7.53791 1.83709C7.3621 1.66127 7.12364 1.5625 6.875 1.5625C6.62636 1.5625 6.3879 1.66127 6.21209 1.83709C6.03627 2.0129 5.9375 2.25136 5.9375 2.5V10.7336C5.9375 10.9822 6.03627 11.2207 6.21209 11.3965C6.3879 11.5723 6.62636 11.6711 6.875 11.6711ZM7.8125 8.75V7.8125H12.1875V8.75H7.8125ZM12.1875 5V5.9375H7.8125V5H12.1875ZM1.5625 12.8125C1.5625 12.5639 1.66127 12.3254 1.83709 12.1496C2.0129 11.9738 2.25136 11.875 2.5 11.875C3.72109 11.875 4.375 12.3086 4.89531 12.6562C5.31719 12.9375 5.59844 13.125 6.25 13.125C6.90156 13.125 7.18203 12.9391 7.60469 12.6562C8.12734 12.307 8.77656 11.875 9.99922 11.875C11.2219 11.875 11.8742 12.3086 12.3945 12.6562C12.8172 12.9375 13.0977 13.125 13.75 13.125C14.4023 13.125 14.6828 12.9391 15.1047 12.6562C15.6281 12.307 16.2766 11.875 17.5 11.875C17.7486 11.875 17.9871 11.9738 18.1629 12.1496C18.3387 12.3254 18.4375 12.5639 18.4375 12.8125C18.4375 13.0611 18.3387 13.2996 18.1629 13.4754C17.9871 13.6512 17.7486 13.75 17.5 13.75C16.8461 13.75 16.5672 13.9359 16.1445 14.2188C15.6219 14.568 14.9727 15 13.75 15C12.5273 15 11.875 14.5664 11.3547 14.2188C10.932 13.9375 10.6516 13.75 9.99922 13.75C9.34687 13.75 9.06719 13.9359 8.64453 14.2188C8.12188 14.568 7.47266 15 6.25 15C5.02734 15 4.375 14.5664 3.85469 14.2188C3.43281 13.9375 3.15156 13.75 2.5 13.75C2.25136 13.75 2.0129 13.6512 1.83709 13.4754C1.66127 13.2996 1.5625 13.0611 1.5625 12.8125ZM18.4375 16.25C18.4375 16.4986 18.3387 16.7371 18.1629 16.9129C17.9871 17.0887 17.7486 17.1875 17.5 17.1875C16.8461 17.1875 16.5672 17.3734 16.1445 17.6562C15.6219 18.0055 14.9727 18.4375 13.75 18.4375C12.5273 18.4375 11.875 18.0039 11.3547 17.6562C10.932 17.375 10.6516 17.1875 9.99922 17.1875C9.34687 17.1875 9.06719 17.3734 8.64453 17.6562C8.12188 18.0055 7.47266 18.4375 6.25 18.4375C5.02734 18.4375 4.375 18.0039 3.85469 17.6562C3.43281 17.375 3.15156 17.1875 2.5 17.1875C2.25136 17.1875 2.0129 17.0887 1.83709 16.9129C1.66127 16.7371 1.5625 16.4986 1.5625 16.25C1.5625 16.0014 1.66127 15.7629 1.83709 15.5871C2.0129 15.4113 2.25136 15.3125 2.5 15.3125C3.72109 15.3125 4.375 15.7461 4.89531 16.0938C5.31719 16.375 5.59844 16.5625 6.25 16.5625C6.90156 16.5625 7.18203 16.3766 7.60469 16.0938C8.12734 15.7445 8.77656 15.3125 9.99922 15.3125C11.2219 15.3125 11.8742 15.7461 12.3945 16.0938C12.8172 16.375 13.0977 16.5625 13.75 16.5625C14.4023 16.5625 14.6828 16.3766 15.1047 16.0938C15.6281 15.7445 16.2766 15.3125 17.5 15.3125C17.7486 15.3125 17.9871 15.4113 18.1629 15.5871C18.3387 15.7629 18.4375 16.0014 18.4375 16.25Z" fill="#475367"></path>
</symbol>
<symbol viewBox="0 0 25 24" fill="none" id="Search">
<path d="M21.693 20.4696L16.9989 15.7765C18.3594 14.1431 19.0378 12.048 18.893 9.92715C18.7482 7.80629 17.7914 5.82289 16.2215 4.38956C14.6516 2.95623 12.5895 2.18333 10.4642 2.23163C8.33898 2.27993 6.31416 3.14571 4.81099 4.64888C3.30782 6.15205 2.44204 8.17687 2.39374 10.3021C2.34544 12.4274 3.11834 14.4894 4.55167 16.0593C5.985 17.6293 7.9684 18.5861 10.0893 18.7309C12.2101 18.8757 14.3052 18.1973 15.9386 16.8368L20.6317 21.5308C20.7014 21.6005 20.7841 21.6558 20.8752 21.6935C20.9662 21.7312 21.0638 21.7506 21.1623 21.7506C21.2609 21.7506 21.3585 21.7312 21.4495 21.6935C21.5405 21.6558 21.6233 21.6005 21.693 21.5308C21.7626 21.4612 21.8179 21.3784 21.8556 21.2874C21.8933 21.1963 21.9127 21.0988 21.9127 21.0002C21.9127 20.9017 21.8933 20.8041 21.8556 20.713C21.8179 20.622 21.7626 20.5393 21.693 20.4696ZM3.91232 10.5002C3.91232 9.16519 4.3082 7.86015 5.0499 6.75011C5.7916 5.64008 6.84581 4.77492 8.07921 4.26403C9.31261 3.75314 10.6698 3.61946 11.9792 3.87991C13.2886 4.14036 14.4913 4.78324 15.4353 5.72724C16.3793 6.67125 17.0222 7.87398 17.2826 9.18335C17.5431 10.4927 17.4094 11.8499 16.8985 13.0833C16.3876 14.3167 15.5225 15.3709 14.4124 16.1126C13.3024 16.8543 11.9973 17.2502 10.6623 17.2502C8.87272 17.2482 7.15699 16.5364 5.89155 15.271C4.6261 14.0056 3.91431 12.2898 3.91232 10.5002Z" fill="#667185"></path>
</symbol>
<symbol viewBox="0 0 40 40" fill="none" id="Set">
<rect x="1" y="1" width="38" height="38" rx="19" fill="white" stroke="#E7F0FF" stroke-width="2"></rect>
<path d="M20 16.75C19.3572 16.75 18.7289 16.9406 18.1944 17.2977C17.6599 17.6548 17.2434 18.1624 16.9974 18.7563C16.7514 19.3501 16.6871 20.0036 16.8125 20.634C16.9379 21.2645 17.2474 21.8436 17.7019 22.2981C18.1564 22.7526 18.7355 23.0621 19.366 23.1875C19.9964 23.3129 20.6499 23.2486 21.2437 23.0026C21.8376 22.7566 22.3452 22.3401 22.7023 21.8056C23.0594 21.2711 23.25 20.6428 23.25 20C23.249 19.1383 22.9063 18.3123 22.297 17.703C21.6877 17.0937 20.8617 16.751 20 16.75ZM20 21.75C19.6539 21.75 19.3155 21.6474 19.0278 21.4551C18.74 21.2628 18.5157 20.9895 18.3832 20.6697C18.2508 20.3499 18.2161 19.9981 18.2836 19.6586C18.3512 19.3191 18.5178 19.0073 18.7626 18.7626C19.0073 18.5178 19.3191 18.3511 19.6586 18.2836C19.9981 18.2161 20.3499 18.2508 20.6697 18.3832C20.9895 18.5157 21.2628 18.74 21.4551 19.0277C21.6474 19.3155 21.75 19.6539 21.75 20C21.75 20.4641 21.5656 20.9092 21.2374 21.2374C20.9093 21.5656 20.4641 21.75 20 21.75ZM27.1163 18.6519C27.0951 18.5462 27.0514 18.4464 26.9882 18.3591C26.925 18.2719 26.8438 18.1993 26.75 18.1462L25.0131 17.1556L25.0063 15.1987C25.0059 15.0902 24.9819 14.983 24.9361 14.8846C24.8902 14.7861 24.8235 14.6989 24.7406 14.6287C24.0407 14.0365 23.2348 13.5825 22.3656 13.2906C22.2665 13.2572 22.1614 13.2448 22.0572 13.2544C21.9531 13.264 21.852 13.2953 21.7606 13.3462L20 14.3294L18.2394 13.3456C18.1479 13.2944 18.0466 13.2629 17.9422 13.2532C17.8378 13.2435 17.7325 13.2558 17.6331 13.2894C16.7637 13.5824 15.9578 14.0378 15.2581 14.6312C15.1755 14.7013 15.109 14.7884 15.0633 14.8866C15.0175 14.9848 14.9936 15.0917 14.9931 15.2L14.9844 17.1587L13.25 18.1469C13.1562 18.2001 13.075 18.2729 13.0119 18.3604C12.9488 18.4479 12.9053 18.5479 12.8844 18.6537C12.7078 19.5432 12.7078 20.4587 12.8844 21.3481C12.9055 21.4537 12.949 21.5535 13.0121 21.6408C13.0752 21.728 13.1563 21.8006 13.25 21.8537L14.9888 22.8444L14.9956 24.8012C14.996 24.9098 15.02 25.017 15.0658 25.1154C15.1117 25.2138 15.1784 25.3011 15.2613 25.3712C15.9612 25.9634 16.7671 26.4175 17.6363 26.7094C17.7354 26.7428 17.8404 26.7551 17.9446 26.7456C18.0488 26.736 18.1499 26.7047 18.2413 26.6537L20 25.6706L21.7588 26.6544C21.8503 26.7056 21.9515 26.7371 22.0559 26.7468C22.1603 26.7565 22.2656 26.7442 22.365 26.7106C23.2344 26.4176 24.0403 25.9622 24.74 25.3687C24.8226 25.2987 24.8891 25.2116 24.9348 25.1134C24.9806 25.0152 25.0045 24.9083 25.005 24.8L25.0138 22.8412L26.7519 21.8531C26.8457 21.7999 26.9269 21.7271 26.99 21.6396C27.0531 21.5521 27.0966 21.4521 27.1175 21.3462C27.2937 20.4567 27.2932 19.5412 27.1163 18.6519ZM25.7019 20.7256L24.0219 21.6806C23.9025 21.7483 23.8041 21.8475 23.7375 21.9675C23.7038 22.03 23.6681 22.0881 23.6313 22.1475C23.5572 22.2658 23.5176 22.4023 23.5169 22.5419L23.5081 24.4375C23.1038 24.7418 22.661 24.9912 22.1913 25.1794L20.4944 24.23C20.3825 24.1673 20.2564 24.1344 20.1281 24.1344H20.11C20.0388 24.1344 19.9663 24.1344 19.895 24.1344C19.761 24.1312 19.6285 24.1638 19.5113 24.2287L17.8125 25.1762C17.342 24.989 16.8982 24.7406 16.4925 24.4375L16.4856 22.5475C16.4851 22.4077 16.4454 22.2709 16.3713 22.1525C16.335 22.0937 16.2988 22.0331 16.265 21.9725C16.1983 21.8533 16.1002 21.7547 15.9813 21.6875L14.3 20.7269C14.2347 20.2449 14.2347 19.7563 14.3 19.2744L15.98 18.3194C16.0992 18.2517 16.1975 18.1527 16.2644 18.0331C16.2981 17.9706 16.3338 17.9119 16.3706 17.8525C16.4447 17.7342 16.4843 17.5977 16.485 17.4581L16.4919 15.5625C16.8964 15.2591 17.3391 15.0105 17.8088 14.8231L19.5056 15.7725C19.6228 15.8383 19.7557 15.8711 19.89 15.8675C19.9613 15.8675 20.0338 15.8675 20.105 15.8675C20.239 15.8707 20.3715 15.8381 20.4888 15.7731L22.1875 14.8237C22.658 15.011 23.1018 15.2594 23.5075 15.5625L23.5144 17.4525C23.515 17.5922 23.5546 17.7291 23.6288 17.8475C23.665 17.9062 23.7013 17.9669 23.735 18.0275C23.8017 18.1467 23.8998 18.2453 24.0188 18.3125L25.7 19.2706C25.7662 19.7533 25.7668 20.2427 25.7019 20.7256Z" fill="#344054"></path>
</symbol>
<symbol viewBox="0 0 18 18" fill="none" id="Star">
<path d="M16.4884 8.0422L13.3173 10.8097L14.2672 14.93C14.3175 15.1454 14.3031 15.3708 14.226 15.5781C14.1488 15.7854 14.0123 15.9654 13.8334 16.0955C13.6545 16.2256 13.4413 16.3001 13.2203 16.3096C12.9993 16.3192 12.7804 16.2634 12.591 16.1492L8.9973 13.9695L5.41136 16.1492C5.22192 16.2634 5.00303 16.3192 4.78205 16.3096C4.56107 16.3001 4.34781 16.2256 4.16894 16.0955C3.99006 15.9654 3.85351 15.7854 3.77635 15.5781C3.69919 15.3708 3.68485 15.1454 3.73511 14.93L4.68363 10.8139L1.51183 8.0422C1.34407 7.89752 1.22276 7.70652 1.16312 7.49317C1.10348 7.27981 1.10815 7.0536 1.17656 6.84289C1.24497 6.63218 1.37407 6.44636 1.54766 6.30873C1.72126 6.1711 1.93162 6.08779 2.15238 6.06923L6.33316 5.70712L7.96511 1.81463C8.05034 1.61038 8.19409 1.43591 8.37826 1.3132C8.56243 1.19048 8.7788 1.125 9.00011 1.125C9.22143 1.125 9.43779 1.19048 9.62197 1.3132C9.80614 1.43591 9.94989 1.61038 10.0351 1.81463L11.672 5.70712L15.8514 6.06923C16.0721 6.08779 16.2825 6.1711 16.4561 6.30873C16.6297 6.44636 16.7588 6.63218 16.8272 6.84289C16.8956 7.0536 16.9003 7.27981 16.8406 7.49317C16.781 7.70652 16.6597 7.89752 16.4919 8.0422H16.4884Z" fill="#F4B93E"></path>
</symbol>
<symbol viewBox="0 0 32 32" fill="none" id="Study">
<path d="M28.3162 7.0512L16.3162 3.0512C16.111 2.98277 15.889 2.98277 15.6838 3.0512L3.68375 7.0512C3.48463 7.11758 3.31145 7.24493 3.18873 7.41521C3.06601 7.58549 2.99998 7.79006 3 7.99995V18C3 18.2652 3.10536 18.5195 3.29289 18.7071C3.48043 18.8946 3.73478 19 4 19C4.26522 19 4.51957 18.8946 4.70711 18.7071C4.89464 18.5195 5 18.2652 5 18V9.38745L9.19875 10.7862C8.0832 12.5885 7.72846 14.7598 8.21242 16.8233C8.69638 18.8869 9.97949 20.6741 11.78 21.7925C9.53 22.675 7.585 24.2712 6.1625 26.4537C6.08852 26.5637 6.03713 26.6872 6.01133 26.8172C5.98552 26.9472 5.98581 27.081 6.01218 27.2109C6.03854 27.3408 6.09046 27.4641 6.16492 27.5737C6.23937 27.6834 6.33488 27.7771 6.44588 27.8495C6.55688 27.9219 6.68117 27.9715 6.81151 27.9955C6.94185 28.0194 7.07566 28.0172 7.20514 27.989C7.33463 27.9608 7.45722 27.9071 7.56577 27.8311C7.67433 27.7551 7.7667 27.6582 7.8375 27.5462C9.72125 24.6562 12.6962 23 16 23C19.3037 23 22.2788 24.6562 24.1625 27.5462C24.3092 27.7642 24.5357 27.9157 24.7932 27.968C25.0507 28.0203 25.3184 27.9691 25.5385 27.8256C25.7586 27.682 25.9133 27.4576 25.9692 27.2009C26.0252 26.9442 25.9779 26.6758 25.8375 26.4537C24.415 24.2712 22.4625 22.675 20.22 21.7925C22.0188 20.6741 23.3007 18.8881 23.7846 16.8261C24.2684 14.764 23.9148 12.5942 22.8013 10.7925L28.3162 8.95495C28.5154 8.88861 28.6886 8.76128 28.8114 8.591C28.9342 8.42072 29.0002 8.21612 29.0002 8.0062C29.0002 7.79628 28.9342 7.59169 28.8114 7.42141C28.6886 7.25112 28.5154 7.12379 28.3162 7.05745V7.0512ZM22 15C22.0003 15.9485 21.7756 16.8836 21.3445 17.7286C20.9134 18.5735 20.2881 19.3042 19.5199 19.8607C18.7517 20.4172 17.8625 20.7836 16.9253 20.9299C15.9881 21.0762 15.0295 20.9982 14.1283 20.7022C13.2271 20.4063 12.4088 19.901 11.7407 19.2276C11.0726 18.5542 10.5737 17.7321 10.2849 16.8285C9.99607 15.925 9.92559 14.9659 10.0792 14.0298C10.2329 13.0938 10.6063 12.2075 11.1687 11.4437L15.6838 12.9437C15.889 13.0121 16.111 13.0121 16.3162 12.9437L20.8312 11.4437C21.591 12.4737 22.0006 13.7201 22 15ZM16 10.9462L7.1625 7.99995L16 5.0537L24.8375 7.99995L16 10.9462Z" fill="#667185"></path>
</symbol>
<symbol viewBox="0 0 20 20" fill="none" id="Usb">
<path d="M19.625 9.25001L15.875 6.43751C15.7357 6.33304 15.5701 6.26943 15.3967 6.25379C15.2233 6.23816 15.049 6.27112 14.8932 6.34898C14.7375 6.42684 14.6065 6.54653 14.515 6.69463C14.4235 6.84274 14.375 7.0134 14.375 7.18751V9.06251H5.9375V5.93751H7.97344C8.19459 6.56302 8.62975 7.09021 9.20201 7.42591C9.77427 7.76161 10.4468 7.88419 11.1007 7.772C11.7546 7.65981 12.3478 7.32006 12.7754 6.81281C13.203 6.30556 13.4376 5.66346 13.4376 5.00001C13.4376 4.33655 13.203 3.69445 12.7754 3.1872C12.3478 2.67995 11.7546 2.3402 11.1007 2.22801C10.4468 2.11582 9.77427 2.2384 9.20201 2.5741C8.62975 2.9098 8.19459 3.43699 7.97344 4.06251H5.625C5.2106 4.06251 4.81317 4.22713 4.52015 4.52015C4.22712 4.81318 4.0625 5.21061 4.0625 5.62501V9.06251H0.9375C0.68886 9.06251 0.450403 9.16128 0.274587 9.33709C0.098772 9.51291 0 9.75137 0 10C0 10.2486 0.098772 10.4871 0.274587 10.6629C0.450403 10.8387 0.68886 10.9375 0.9375 10.9375H4.0625V14.375C4.0625 14.7894 4.22712 15.1868 4.52015 15.4799C4.81317 15.7729 5.2106 15.9375 5.625 15.9375H7.8125V16.25C7.8125 16.6644 7.97712 17.0618 8.27015 17.3549C8.56317 17.6479 8.9606 17.8125 9.375 17.8125H11.875C12.2894 17.8125 12.6868 17.6479 12.9799 17.3549C13.2729 17.0618 13.4375 16.6644 13.4375 16.25V13.75C13.4375 13.3356 13.2729 12.9382 12.9799 12.6452C12.6868 12.3521 12.2894 12.1875 11.875 12.1875H9.375C8.9606 12.1875 8.56317 12.3521 8.27015 12.6452C7.97712 12.9382 7.8125 13.3356 7.8125 13.75V14.0625H5.9375V10.9375H14.375V12.8125C14.375 12.9866 14.4235 13.1573 14.515 13.3054C14.6065 13.4535 14.7375 13.5732 14.8932 13.651C15.049 13.7289 15.2233 13.7619 15.3967 13.7462C15.5701 13.7306 15.7357 13.667 15.875 13.5625L19.625 10.75C19.7414 10.6627 19.8359 10.5494 19.901 10.4193C19.9661 10.2891 20 10.1455 20 10C20 9.85446 19.9661 9.71092 19.901 9.58074C19.8359 9.45057 19.7414 9.33733 19.625 9.25001ZM10.625 4.06251C10.8104 4.06251 10.9917 4.11749 11.1458 4.2205C11.3 4.32352 11.4202 4.46993 11.4911 4.64124C11.5621 4.81255 11.5807 5.00105 11.5445 5.1829C11.5083 5.36476 11.419 5.53181 11.2879 5.66292C11.1568 5.79403 10.9898 5.88332 10.8079 5.91949C10.626 5.95567 10.4375 5.9371 10.2662 5.86614C10.0949 5.79519 9.94851 5.67502 9.8455 5.52085C9.74248 5.36668 9.6875 5.18543 9.6875 5.00001C9.6875 4.75137 9.78627 4.51291 9.96209 4.33709C10.1379 4.16128 10.3764 4.06251 10.625 4.06251ZM9.6875 14.0625H11.5625V15.9375H9.6875V14.0625ZM16.25 10.9375V9.06251L17.5 10L16.25 10.9375Z" fill="#475367"></path>
</symbol>
<symbol viewBox="0 0 20 20" fill="none" id="UserPlus">
<path d="M20.0002 10.6251C20.0002 10.8737 19.9014 11.1122 19.7256 11.288C19.5498 11.4638 19.3113 11.5626 19.0627 11.5626H18.4377V12.1876C18.4377 12.4362 18.3389 12.6747 18.1631 12.8505C17.9873 13.0263 17.7488 13.1251 17.5002 13.1251C17.2515 13.1251 17.0131 13.0263 16.8373 12.8505C16.6615 12.6747 16.5627 12.4362 16.5627 12.1876V11.5626H15.9377C15.689 11.5626 15.4506 11.4638 15.2748 11.288C15.099 11.1122 15.0002 10.8737 15.0002 10.6251C15.0002 10.3765 15.099 10.138 15.2748 9.96219C15.4506 9.78638 15.689 9.68761 15.9377 9.68761H16.5627V9.06261C16.5627 8.81397 16.6615 8.57551 16.8373 8.39969C17.0131 8.22388 17.2515 8.12511 17.5002 8.12511C17.7488 8.12511 17.9873 8.22388 18.1631 8.39969C18.3389 8.57551 18.4377 8.81397 18.4377 9.06261V9.68761H19.0627C19.3113 9.68761 19.5498 9.78638 19.7256 9.96219C19.9014 10.138 20.0002 10.3765 20.0002 10.6251ZM15.7181 15.022C15.8781 15.2124 15.9559 15.4586 15.9343 15.7063C15.9128 15.9541 15.7937 16.1831 15.6033 16.3431C15.4129 16.503 15.1667 16.5808 14.919 16.5593C14.6712 16.5377 14.4422 16.4186 14.2822 16.2282C13.2127 14.9548 11.3283 13.4376 8.43768 13.4376C6.18065 13.4376 4.10487 14.4282 2.59315 16.2282C2.43319 16.4186 2.20414 16.5377 1.95639 16.5593C1.70863 16.5808 1.46247 16.503 1.27205 16.3431C1.08164 16.1831 0.962563 15.9541 0.941026 15.7063C0.919488 15.4586 0.997252 15.2124 1.15721 15.022C2.17575 13.7919 3.48243 12.8324 4.96112 12.229C4.04161 11.5061 3.37033 10.5145 3.04069 9.39228C2.71105 8.27004 2.73945 7.07295 3.12193 5.9676C3.50441 4.86225 4.22196 3.90362 5.17471 3.22512C6.12746 2.54663 7.26802 2.18201 8.43768 2.18201C9.60734 2.18201 10.7479 2.54663 11.7007 3.22512C12.6534 3.90362 13.3709 4.86225 13.7534 5.9676C14.1359 7.07295 14.1643 8.27004 13.8347 9.39228C13.505 10.5145 12.8337 11.5061 11.9142 12.229C13.3931 12.8322 14.6998 13.7917 15.7181 15.022ZM8.43768 11.5626C9.17936 11.5626 9.90438 11.3427 10.5211 10.9306C11.1378 10.5186 11.6184 9.93289 11.9022 9.24767C12.1861 8.56245 12.2603 7.80845 12.1156 7.08102C11.9709 6.35359 11.6138 5.6854 11.0893 5.16096C10.5649 4.63651 9.8967 4.27936 9.16927 4.13466C8.44184 3.98997 7.68784 4.06423 7.00262 4.34806C6.31739 4.63189 5.73172 5.11253 5.31967 5.72922C4.90761 6.3459 4.68768 7.07093 4.68768 7.81261C4.68871 8.80685 5.08413 9.76008 5.78717 10.4631C6.49021 11.1662 7.44344 11.5616 8.43768 11.5626Z" fill="#0D6EFD"></path>
</symbol>
<symbol viewBox="0 0 32 32" fill="none" id="Visa">
<path d="M27 5H5C4.46957 5 3.96086 5.21071 3.58579 5.58579C3.21071 5.96086 3 6.46957 3 7V27C3.00009 27.1704 3.04374 27.338 3.12681 27.4869C3.20988 27.6357 3.32961 27.7608 3.47463 27.8503C3.61965 27.9399 3.78516 27.9909 3.95543 27.9985C4.12569 28.0061 4.29508 27.97 4.4475 27.8937L8 26.1175L11.5525 27.8937C11.6914 27.9633 11.8446 27.9995 12 27.9995C12.1554 27.9995 12.3086 27.9633 12.4475 27.8937L16 26.1175L19.5525 27.8937C19.6914 27.9633 19.8446 27.9995 20 27.9995C20.1554 27.9995 20.3086 27.9633 20.4475 27.8937L24 26.1175L27.5525 27.8937C27.7049 27.97 27.8743 28.0061 28.0446 27.9985C28.2148 27.9909 28.3803 27.9399 28.5254 27.8503C28.6704 27.7608 28.7901 27.6357 28.8732 27.4869C28.9563 27.338 28.9999 27.1704 29 27V7C29 6.46957 28.7893 5.96086 28.4142 5.58579C28.0391 5.21071 27.5304 5 27 5ZM27 25.3825L24.4475 24.105C24.3086 24.0355 24.1554 23.9993 24 23.9993C23.8446 23.9993 23.6914 24.0355 23.5525 24.105L20 25.8825L16.4475 24.105C16.3086 24.0355 16.1554 23.9993 16 23.9993C15.8446 23.9993 15.6914 24.0355 15.5525 24.105L12 25.8825L8.4475 24.105C8.30857 24.0355 8.15535 23.9993 8 23.9993C7.84465 23.9993 7.69143 24.0355 7.5525 24.105L5 25.3825V7H27V25.3825ZM17 14C17 13.7348 17.1054 13.4804 17.2929 13.2929C17.4804 13.1054 17.7348 13 18 13H24C24.2652 13 24.5196 13.1054 24.7071 13.2929C24.8946 13.4804 25 13.7348 25 14C25 14.2652 24.8946 14.5196 24.7071 14.7071C24.5196 14.8946 24.2652 15 24 15H18C17.7348 15 17.4804 14.8946 17.2929 14.7071C17.1054 14.5196 17 14.2652 17 14ZM17 18C17 17.7348 17.1054 17.4804 17.2929 17.2929C17.4804 17.1054 17.7348 17 18 17H24C24.2652 17 24.5196 17.1054 24.7071 17.2929C24.8946 17.4804 25 17.7348 25 18C25 18.2652 24.8946 18.5196 24.7071 18.7071C24.5196 18.8946 24.2652 19 24 19H18C17.7348 19 17.4804 18.8946 17.2929 18.7071C17.1054 18.5196 17 18.2652 17 18ZM8 21H14C14.2652 21 14.5196 20.8946 14.7071 20.7071C14.8946 20.5196 15 20.2652 15 20V12C15 11.7348 14.8946 11.4804 14.7071 11.2929C14.5196 11.1054 14.2652 11 14 11H8C7.73478 11 7.48043 11.1054 7.29289 11.2929C7.10536 11.4804 7 11.7348 7 12V20C7 20.2652 7.10536 20.5196 7.29289 20.7071C7.48043 20.8946 7.73478 21 8 21ZM9 13H13V19H9V13Z" fill="#667185"></path>
</symbol>
<symbol viewBox="0 0 32 32" fill="none" id="Wallet">
<path d="M27 9H7C6.73478 9 6.48043 8.89464 6.29289 8.70711C6.10536 8.51957 6 8.26522 6 8C6 7.73478 6.10536 7.48043 6.29289 7.29289C6.48043 7.10536 6.73478 7 7 7H24C24.2652 7 24.5196 6.89464 24.7071 6.70711C24.8946 6.51957 25 6.26522 25 6C25 5.73478 24.8946 5.48043 24.7071 5.29289C24.5196 5.10536 24.2652 5 24 5H7C6.20435 5 5.44129 5.31607 4.87868 5.87868C4.31607 6.44129 4 7.20435 4 8V24C4 24.7956 4.31607 25.5587 4.87868 26.1213C5.44129 26.6839 6.20435 27 7 27H27C27.5304 27 28.0391 26.7893 28.4142 26.4142C28.7893 26.0391 29 25.5304 29 25V11C29 10.4696 28.7893 9.96086 28.4142 9.58579C28.0391 9.21071 27.5304 9 27 9ZM27 25H7C6.73478 25 6.48043 24.8946 6.29289 24.7071C6.10536 24.5196 6 24.2652 6 24V10.8287C6.32109 10.9426 6.65933 11.0005 7 11H27V25ZM21 17.5C21 17.2033 21.088 16.9133 21.2528 16.6666C21.4176 16.42 21.6519 16.2277 21.926 16.1142C22.2001 16.0007 22.5017 15.9709 22.7926 16.0288C23.0836 16.0867 23.3509 16.2296 23.5607 16.4393C23.7704 16.6491 23.9133 16.9164 23.9712 17.2074C24.0291 17.4983 23.9993 17.7999 23.8858 18.074C23.7723 18.3481 23.58 18.5824 23.3334 18.7472C23.0867 18.912 22.7967 19 22.5 19C22.1022 19 21.7206 18.842 21.4393 18.5607C21.158 18.2794 21 17.8978 21 17.5Z" fill="#667185"></path>
</symbol>
</defs>
</svg>
